<svg width="37" height="38" viewBox="0 0 37 38" fill="none" xmlns="http://www.w3.org/2000/svg">
<path d="M6.80228 23.8466H13.8182V31.0162C13.8182 33.81 16.083 36.0748 18.8768 36.0748C21.6706 36.0748 23.9354 33.81 23.9354 31.0162V23.8466H30.9514C33.6113 23.8466 35.7676 21.6903 35.7676 19.0304C35.7676 16.3705 33.6113 14.2142 30.9514 14.2142H23.9354V7.04466C23.9354 4.25087 21.6706 1.98606 18.8768 1.98606C16.083 1.98606 13.8182 4.25087 13.8182 7.04466V14.2142H6.80228C4.14236 14.2142 1.98606 16.3705 1.98606 19.0304C1.98606 21.6903 4.14235 23.8466 6.80228 23.8466Z" fill="url(#paint0_linear_14_546)" stroke="#242833" stroke-width="2.02788"/>
<defs>
<linearGradient id="paint0_linear_14_546" x1="18.8768" y1="3" x2="18.8768" y2="35.0608" gradientUnits="userSpaceOnUse">
<stop stop-color="#7208FC"/>
<stop offset="1" stop-color="#4004C2"/>
</linearGradient>
</defs>
</svg>
