<svg width="200" height="205" viewBox="0 0 200 205" fill="none" xmlns="http://www.w3.org/2000/svg">
<path d="M171.802 62.8327C169.702 62.8327 168 61.1304 168 59.0304C168 56.9305 169.702 55.2281 171.802 55.2281H195.951C198.051 55.2281 199.754 56.9305 199.754 59.0304C199.754 61.1304 198.051 62.8327 195.951 62.8327H171.802ZM179.832 47.0447C179.832 44.8109 181.643 43 183.877 43C186.111 43 187.921 44.8109 187.921 47.0447V71.0162C187.921 73.25 186.111 75.0608 183.877 75.0608C181.643 75.0608 179.832 73.25 179.832 71.0162V47.0447Z" fill="url(#paint0_linear_14_657)" fill-opacity="0.4"/>
<path d="M129.802 62.8327C127.702 62.8327 126 61.1304 126 59.0304C126 56.9305 127.702 55.2281 129.802 55.2281H153.951C156.051 55.2281 157.754 56.9305 157.754 59.0304C157.754 61.1304 156.051 62.8327 153.951 62.8327H129.802ZM137.832 47.0447C137.832 44.8109 139.643 43 141.877 43C144.111 43 145.921 44.8109 145.921 47.0447V71.0162C145.921 73.25 144.111 75.0608 141.877 75.0608C139.643 75.0608 137.832 73.25 137.832 71.0162V47.0447Z" fill="url(#paint1_linear_14_657)" fill-opacity="0.4"/>
<path d="M129.802 105.833C127.702 105.833 126 104.13 126 102.03C126 99.9305 127.702 98.2281 129.802 98.2281H153.951C156.051 98.2281 157.754 99.9305 157.754 102.03C157.754 104.13 156.051 105.833 153.951 105.833H129.802ZM137.832 90.0447C137.832 87.8109 139.643 86 141.877 86C144.111 86 145.921 87.8109 145.921 90.0447V114.016C145.921 116.25 144.111 118.061 141.877 118.061C139.643 118.061 137.832 116.25 137.832 114.016V90.0447Z" fill="url(#paint2_linear_14_657)" fill-opacity="0.4"/>
<path d="M129.802 148.833C127.702 148.833 126 147.13 126 145.03C126 142.93 127.702 141.228 129.802 141.228H153.951C156.051 141.228 157.754 142.93 157.754 145.03C157.754 147.13 156.051 148.833 153.951 148.833H129.802ZM137.832 133.045C137.832 130.811 139.643 129 141.877 129C144.111 129 145.921 130.811 145.921 133.045V157.016C145.921 159.25 144.111 161.061 141.877 161.061C139.643 161.061 137.832 159.25 137.832 157.016V133.045Z" fill="url(#paint3_linear_14_657)" fill-opacity="0.4"/>
<path d="M129.802 191.833C127.702 191.833 126 190.13 126 188.03C126 185.93 127.702 184.228 129.802 184.228H153.951C156.051 184.228 157.754 185.93 157.754 188.03C157.754 190.13 156.051 191.833 153.951 191.833H129.802ZM137.832 176.045C137.832 173.811 139.643 172 141.877 172C144.111 172 145.921 173.811 145.921 176.045V200.016C145.921 202.25 144.111 204.061 141.877 204.061C139.643 204.061 137.832 202.25 137.832 200.016V176.045Z" fill="url(#paint4_linear_14_657)" fill-opacity="0.4"/>
<path d="M87.8023 191.833C85.7023 191.833 84 190.13 84 188.03C84 185.93 85.7023 184.228 87.8023 184.228H111.951C114.051 184.228 115.754 185.93 115.754 188.03C115.754 190.13 114.051 191.833 111.951 191.833H87.8023ZM95.8322 176.045C95.8322 173.811 97.643 172 99.8768 172C102.111 172 103.921 173.811 103.921 176.045V200.016C103.921 202.25 102.111 204.061 99.8768 204.061C97.643 204.061 95.8322 202.25 95.8322 200.016V176.045Z" fill="url(#paint5_linear_14_657)" fill-opacity="0.4"/>
<path d="M87.8023 148.833C85.7023 148.833 84 147.13 84 145.03C84 142.93 85.7023 141.228 87.8023 141.228H111.951C114.051 141.228 115.754 142.93 115.754 145.03C115.754 147.13 114.051 148.833 111.951 148.833H87.8023ZM95.8322 133.045C95.8322 130.811 97.643 129 99.8768 129C102.111 129 103.921 130.811 103.921 133.045V157.016C103.921 159.25 102.111 161.061 99.8768 161.061C97.643 161.061 95.8322 159.25 95.8322 157.016V133.045Z" fill="url(#paint6_linear_14_657)" fill-opacity="0.4"/>
<path d="M87.8023 105.833C85.7023 105.833 84 104.13 84 102.03C84 99.9305 85.7023 98.2281 87.8023 98.2281H111.951C114.051 98.2281 115.754 99.9305 115.754 102.03C115.754 104.13 114.051 105.833 111.951 105.833H87.8023ZM95.8322 90.0447C95.8322 87.8109 97.643 86 99.8768 86C102.111 86 103.921 87.8109 103.921 90.0447V114.016C103.921 116.25 102.111 118.061 99.8768 118.061C97.643 118.061 95.8322 116.25 95.8322 114.016V90.0447Z" fill="url(#paint7_linear_14_657)" fill-opacity="0.4"/>
<path d="M45.8023 191.833C43.7023 191.833 42 190.13 42 188.03C42 185.93 43.7023 184.228 45.8023 184.228H69.9514C72.0513 184.228 73.7536 185.93 73.7536 188.03C73.7536 190.13 72.0513 191.833 69.9514 191.833H45.8023ZM53.8322 176.045C53.8322 173.811 55.643 172 57.8768 172C60.1106 172 61.9215 173.811 61.9215 176.045V200.016C61.9215 202.25 60.1106 204.061 57.8768 204.061C55.643 204.061 53.8322 202.25 53.8322 200.016V176.045Z" fill="url(#paint8_linear_14_657)" fill-opacity="0.4"/>
<path d="M45.8023 148.833C43.7023 148.833 42 147.13 42 145.03C42 142.93 43.7023 141.228 45.8023 141.228H69.9514C72.0513 141.228 73.7536 142.93 73.7536 145.03C73.7536 147.13 72.0513 148.833 69.9514 148.833H45.8023ZM53.8322 133.045C53.8322 130.811 55.643 129 57.8768 129C60.1106 129 61.9215 130.811 61.9215 133.045V157.016C61.9215 159.25 60.1106 161.061 57.8768 161.061C55.643 161.061 53.8322 159.25 53.8322 157.016V133.045Z" fill="url(#paint9_linear_14_657)" fill-opacity="0.4"/>
<path d="M3.80228 191.833C1.70234 191.833 0 190.13 0 188.03C0 185.93 1.70234 184.228 3.80228 184.228H27.9514C30.0513 184.228 31.7536 185.93 31.7536 188.03C31.7536 190.13 30.0513 191.833 27.9514 191.833H3.80228ZM11.8322 176.045C11.8322 173.811 13.643 172 15.8768 172C18.1106 172 19.9215 173.811 19.9215 176.045V200.016C19.9215 202.25 18.1106 204.061 15.8768 204.061C13.643 204.061 11.8322 202.25 11.8322 200.016V176.045Z" fill="url(#paint10_linear_14_657)" fill-opacity="0.4"/>
<path d="M171.802 19.8327C169.702 19.8327 168 18.1304 168 16.0304C168 13.9305 169.702 12.2281 171.802 12.2281H195.951C198.051 12.2281 199.754 13.9305 199.754 16.0304C199.754 18.1304 198.051 19.8327 195.951 19.8327H171.802ZM179.832 4.04466C179.832 1.81086 181.643 0 183.877 0C186.111 0 187.921 1.81086 187.921 4.04466V28.0162C187.921 30.25 186.111 32.0608 183.877 32.0608C181.643 32.0608 179.832 30.25 179.832 28.0162V4.04466Z" fill="url(#paint11_linear_14_657)" fill-opacity="0.4"/>
<path d="M171.802 105.833C169.702 105.833 168 104.13 168 102.03C168 99.9305 169.702 98.2281 171.802 98.2281H195.951C198.051 98.2281 199.754 99.9305 199.754 102.03C199.754 104.13 198.051 105.833 195.951 105.833H171.802ZM179.832 90.0447C179.832 87.8109 181.643 86 183.877 86C186.111 86 187.921 87.8109 187.921 90.0447V114.016C187.921 116.25 186.111 118.061 183.877 118.061C181.643 118.061 179.832 116.25 179.832 114.016V90.0447Z" fill="url(#paint12_linear_14_657)" fill-opacity="0.4"/>
<path d="M171.802 148.833C169.702 148.833 168 147.13 168 145.03C168 142.93 169.702 141.228 171.802 141.228H195.951C198.051 141.228 199.754 142.93 199.754 145.03C199.754 147.13 198.051 148.833 195.951 148.833H171.802ZM179.832 133.045C179.832 130.811 181.643 129 183.877 129C186.111 129 187.921 130.811 187.921 133.045V157.016C187.921 159.25 186.111 161.061 183.877 161.061C181.643 161.061 179.832 159.25 179.832 157.016V133.045Z" fill="url(#paint13_linear_14_657)" fill-opacity="0.4"/>
<path d="M171.802 191.833C169.702 191.833 168 190.13 168 188.03C168 185.93 169.702 184.228 171.802 184.228H195.951C198.051 184.228 199.754 185.93 199.754 188.03C199.754 190.13 198.051 191.833 195.951 191.833H171.802ZM179.832 176.045C179.832 173.811 181.643 172 183.877 172C186.111 172 187.921 173.811 187.921 176.045V200.016C187.921 202.25 186.111 204.061 183.877 204.061C181.643 204.061 179.832 202.25 179.832 200.016V176.045Z" fill="url(#paint14_linear_14_657)" fill-opacity="0.4"/>
<defs>
<linearGradient id="paint0_linear_14_657" x1="183.877" y1="43" x2="183.877" y2="75.0608" gradientUnits="userSpaceOnUse">
<stop stop-color="#7208FC"/>
<stop offset="1" stop-color="#4004C2"/>
</linearGradient>
<linearGradient id="paint1_linear_14_657" x1="141.877" y1="43" x2="141.877" y2="75.0608" gradientUnits="userSpaceOnUse">
<stop stop-color="#7208FC"/>
<stop offset="1" stop-color="#4004C2"/>
</linearGradient>
<linearGradient id="paint2_linear_14_657" x1="141.877" y1="86" x2="141.877" y2="118.061" gradientUnits="userSpaceOnUse">
<stop stop-color="#7208FC"/>
<stop offset="1" stop-color="#4004C2"/>
</linearGradient>
<linearGradient id="paint3_linear_14_657" x1="141.877" y1="129" x2="141.877" y2="161.061" gradientUnits="userSpaceOnUse">
<stop stop-color="#7208FC"/>
<stop offset="1" stop-color="#4004C2"/>
</linearGradient>
<linearGradient id="paint4_linear_14_657" x1="141.877" y1="172" x2="141.877" y2="204.061" gradientUnits="userSpaceOnUse">
<stop stop-color="#7208FC"/>
<stop offset="1" stop-color="#4004C2"/>
</linearGradient>
<linearGradient id="paint5_linear_14_657" x1="99.8768" y1="172" x2="99.8768" y2="204.061" gradientUnits="userSpaceOnUse">
<stop stop-color="#7208FC"/>
<stop offset="1" stop-color="#4004C2"/>
</linearGradient>
<linearGradient id="paint6_linear_14_657" x1="99.8768" y1="129" x2="99.8768" y2="161.061" gradientUnits="userSpaceOnUse">
<stop stop-color="#7208FC"/>
<stop offset="1" stop-color="#4004C2"/>
</linearGradient>
<linearGradient id="paint7_linear_14_657" x1="99.8768" y1="86" x2="99.8768" y2="118.061" gradientUnits="userSpaceOnUse">
<stop stop-color="#7208FC"/>
<stop offset="1" stop-color="#4004C2"/>
</linearGradient>
<linearGradient id="paint8_linear_14_657" x1="57.8768" y1="172" x2="57.8768" y2="204.061" gradientUnits="userSpaceOnUse">
<stop stop-color="#7208FC"/>
<stop offset="1" stop-color="#4004C2"/>
</linearGradient>
<linearGradient id="paint9_linear_14_657" x1="57.8768" y1="129" x2="57.8768" y2="161.061" gradientUnits="userSpaceOnUse">
<stop stop-color="#7208FC"/>
<stop offset="1" stop-color="#4004C2"/>
</linearGradient>
<linearGradient id="paint10_linear_14_657" x1="15.8768" y1="172" x2="15.8768" y2="204.061" gradientUnits="userSpaceOnUse">
<stop stop-color="#7208FC"/>
<stop offset="1" stop-color="#4004C2"/>
</linearGradient>
<linearGradient id="paint11_linear_14_657" x1="183.877" y1="0" x2="183.877" y2="32.0608" gradientUnits="userSpaceOnUse">
<stop stop-color="#7208FC"/>
<stop offset="1" stop-color="#4004C2"/>
</linearGradient>
<linearGradient id="paint12_linear_14_657" x1="183.877" y1="86" x2="183.877" y2="118.061" gradientUnits="userSpaceOnUse">
<stop stop-color="#7208FC"/>
<stop offset="1" stop-color="#4004C2"/>
</linearGradient>
<linearGradient id="paint13_linear_14_657" x1="183.877" y1="129" x2="183.877" y2="161.061" gradientUnits="userSpaceOnUse">
<stop stop-color="#7208FC"/>
<stop offset="1" stop-color="#4004C2"/>
</linearGradient>
<linearGradient id="paint14_linear_14_657" x1="183.877" y1="172" x2="183.877" y2="204.061" gradientUnits="userSpaceOnUse">
<stop stop-color="#7208FC"/>
<stop offset="1" stop-color="#4004C2"/>
</linearGradient>
</defs>
</svg>
