<svg width="34" height="34" viewBox="0 0 34 34" fill="none" xmlns="http://www.w3.org/2000/svg">
<path d="M26.505 16.6709L26.2637 15.5713C26.5374 14.6244 26.8389 14.1001 27.0681 13.1852C27.0362 12.8035 26.9845 12.6528 26.8216 12.519C25.3976 9.95512 24.5657 8.19777 24.6591 5.8864C24.2272 7.60517 24.3697 8.09563 24.6834 9.91532C23.7916 8.24543 23.4483 6.84714 23.4081 5.10483C23.1103 5.28577 23.1133 8.7286 23.5158 9.72676C23.6024 9.81392 23.6923 9.90249 23.7856 9.99263C23.6811 10.0155 23.5914 9.9143 23.5158 9.72676C21.5249 7.72261 21.2726 6.46454 20.4759 4.02044C20.3037 6.33625 20.6583 7.54562 22.0282 9.99475C20.0111 7.87177 19.2763 6.45004 18.3346 3.69872C17.8387 5.82111 18.5431 7.21486 19.9988 9.4323C18.4676 8.24501 17.8016 7.33325 16.8844 5.36228C16.7543 7.29121 17.5216 8.63164 19.0052 10.5111L21.3486 15.1131C21.882 15.9356 22.324 16.7481 22.7228 17.7425L21.3486 15.1131C20.269 13.4484 18.7672 11.9333 16.251 9.74775C15.7638 9.91225 13.795 8.32547 13.3461 7.31676C13.3709 7.87599 13.4347 8.18219 13.6687 8.71066C13.1594 8.70939 11.3025 6.62713 10.8949 5.55032C11.0009 6.45283 11.5179 7.13384 11.9573 7.91022C10.7209 7.62496 7.82392 3.90563 8.08549 2.32576C7.7453 4.30125 9.44089 5.51132 9.78819 6.87421C7.57771 5.14493 6.46495 3.95623 4.94998 1.02192C5.15176 2.55785 6.10382 3.842 6.58671 5.00855L7.68762 6.18333C5.10986 4.46664 4.25566 3.29399 3.30192 1C3.30192 1 3.40579 2.44199 3.61931 2.82729C3.83283 3.21259 5.36548 5.29217 6.95242 6.84923C4.13977 4.99448 2.90301 3.823 1.66139 1.36064C1.85704 2.35399 1.6613 2.80503 2.51259 4.15118C3.36388 5.49734 4.18812 5.92005 4.18812 5.92005C2.73091 5.21404 2.06637 4.72699 1.06303 3.74944C1.06303 3.74944 0.902734 3.97678 1.0934 4.24704C1.28407 4.5173 2.65291 5.82389 3.92077 6.98738C3.04889 6.65475 2.59871 6.39767 1.95164 5.76321C1.95164 5.76321 2.37456 6.55885 2.72031 7.03516C3.06606 7.51146 5.10298 8.45647 5.10298 8.45647C4.06004 8.33064 3.49027 8.21091 2.50388 7.89919C2.67384 8.36023 3.32334 8.72116 5.45364 9.53203C5.14334 9.67434 4.83569 9.69495 4.08277 9.64127C5.59597 10.0694 6.28497 10.3747 6.96135 11.1457L6.09392 11.7206C7.4855 12.1851 8.0866 12.421 8.77171 12.7888C8.61411 12.9887 8.39279 13.0483 7.67802 13.0293C8.09556 13.5417 8.56262 13.7686 9.62842 14.1134C9.62842 14.1134 9.52918 14.3033 9.87754 14.5629C10.2126 14.8126 11.056 14.7506 11.1199 14.7455C11.1212 14.7454 11.1225 14.7453 11.1237 14.7452C11.1237 14.7452 11.1224 14.7453 11.1199 14.7455C10.9873 14.7599 10.4522 15.157 10.4522 15.157C10.4522 15.157 10.7342 15.8874 11.0242 15.9677L12.1355 16.2758C12.1355 16.2758 12.3758 16.5108 12.1805 17.2143C12.1238 17.4185 12.0303 17.6623 11.8836 17.9513C11.5087 18.6895 12.2472 18.4398 12.8679 18.2299C12.8711 18.2289 12.8743 18.2278 12.8774 18.2267C13.3324 18.0729 13.7204 17.9434 13.5541 18.2452C13.16 18.96 13.2097 20.0072 13.2097 20.0072L14.5633 19.9924C14.8049 20.0594 14.3637 21.1074 14.1806 21.2197C13.9974 21.332 15.5114 21.7771 15.5114 21.7771C15.5114 21.7771 15.5062 22.2105 15.6995 22.2641C15.8928 22.3176 16.8005 22.2739 16.8005 22.2739C17.1688 22.6803 17.0385 23.3439 17.0802 23.3533C17.1219 23.3627 17.9499 23.5944 18.1432 23.6479C18.3365 23.7015 18.5477 23.2709 18.5477 23.2709C18.5477 23.2709 19.0309 23.4048 19.0893 23.584C19.1478 23.7633 18.2852 24.9375 18.2852 24.9375C16.7078 25.6868 13.9637 26.5118 13.7933 26.5733C13.6229 26.6348 13.3379 27.1537 13.5083 27.0922C13.6787 27.0307 14.5409 26.8892 14.5409 26.8892L12.9383 28.13C12.9383 28.13 12.8518 28.2691 12.8492 28.4858C12.8466 28.7025 14.1845 28.3123 14.1845 28.3123L12.9227 29.4302C12.9227 29.4302 12.6987 29.9116 12.6249 29.9999C12.5512 30.0881 13.2456 29.7914 13.2456 29.7914C13.2456 29.7914 14.1383 29.2185 14.1613 29.2299C14.1844 29.2413 12.8729 30.3426 12.7905 30.4806C12.7082 30.6186 12.18 30.855 12.6887 30.8872C13.1973 30.9195 13.876 30.7815 13.876 30.7815C13.876 30.7815 13.1923 31.6544 12.971 31.9192C12.7496 32.184 14.3259 31.6671 14.3259 31.6671C14.3259 31.6671 15.5338 30.6974 15.3484 31.2982C15.1631 31.8991 15.0009 32.8656 15.072 32.994C15.1432 33.1225 16.732 31.1382 16.732 31.1382C16.732 31.1382 16.5694 32.4553 16.6533 32.5329C16.7372 32.6105 17.7644 31.9678 17.7644 31.9678C17.7644 31.9678 18.7161 30.1118 18.4513 30.9624C18.1866 31.8131 18.7895 31.0562 18.7895 31.0562C18.7895 31.0562 18.7177 31.6688 18.2852 32.3642C17.8526 33.0596 20.1375 31.158 20.0663 31.0295C19.9952 30.9011 20.4176 30.0398 20.4176 30.0398C20.4555 29.7973 20.5243 29.7997 20.6974 29.9543C20.6974 29.9543 20.8499 30.377 20.8117 30.5295C20.7735 30.682 21.1424 30.2407 21.1424 30.2407L21.303 28.9807C21.303 28.9807 21.5733 29.4643 21.5877 29.4944C21.602 29.5246 21.7092 28.0349 21.7992 28.0312L22.1299 27.7423L23.6634 28.2217C23.6634 28.2217 24.0601 28.4947 23.9252 28.6204C23.7904 28.7461 23.5594 28.8016 23.5106 28.8316C23.4618 28.8615 22.8825 28.6575 22.7858 28.6307C22.6892 28.6039 22.1626 29.0559 22.2592 29.0827C22.3559 29.1094 22.0301 29.9975 22.0301 29.9975L22.8391 29.2434C22.8391 29.2434 22.8904 29.2448 23.1494 29.2421C23.4084 29.2394 23.2611 29.3617 23.4084 29.2395C23.5558 29.1172 23.6687 29.1378 23.6687 29.1378C23.6687 29.1378 24.0395 29.1956 24.1107 29.324C24.1819 29.4525 24.047 29.5782 24.047 29.5782C24.047 29.5782 24.0216 29.6798 23.8384 29.7921C23.6553 29.9044 23.5688 30.0435 23.5688 30.0435C23.4324 30.0914 23.1881 30.2786 22.7549 30.1984C22.7549 30.1984 23.0422 30.4954 23.1388 30.5222C23.2354 30.549 24.3419 30.2578 24.3419 30.2578C24.3428 30.4823 23.4989 30.8536 23.2785 30.9958L22.6961 31.0518C23.0822 31.1898 23.249 31.2479 23.4565 31.3169C23.864 31.2181 24.0544 31.2283 24.2998 30.9527L24.7258 30.5816L24.8531 30.0733C24.8531 30.0733 25.0809 29.3739 25.1077 29.0568C25.1346 28.7397 24.9835 28.545 24.7316 28.0829C24.7316 28.0829 23.2337 27.6678 23.1244 27.6918C23.015 27.7159 23.1576 27.2805 23.094 27.1942C23.0303 27.1079 23.277 26.8611 23.412 26.9562C23.5381 27.1044 23.5987 27.222 23.6967 27.47C24.0934 27.6299 24.3429 27.6907 24.808 27.778C26.2698 27.6812 26.8481 27.7209 26.7052 28.2494C26.5747 28.4708 26.5356 28.6262 26.2752 28.7281L25.9216 28.9019L25.8528 29.5894L26.0434 29.8597L26.0715 29.5413C26.0715 29.5413 26.1123 29.1722 26.1962 29.2498C26.2801 29.3274 26.4149 29.2017 26.4149 29.2017C26.6004 29.0201 26.9135 29.0681 26.9745 29.0307C27.0356 28.9932 26.8831 28.5705 27.0052 28.4956C27.1273 28.4208 27.6641 28.3001 27.8393 28.6725L27.9944 28.8785C28.4356 28.8351 28.365 29.0804 28.1188 29.6196L28.0806 29.7721C28.0806 29.7721 28.4825 29.6117 28.5818 29.4218C28.681 29.2318 28.7421 29.1944 28.6608 28.9001C28.5795 28.6058 28.0404 28.0759 28.0404 28.0759C28.4058 28.0629 28.6701 28.3656 29.1567 28.9832C29.2255 29.0486 29.1032 29.4032 29.1388 29.4674C29.1743 29.5316 29.1107 29.7858 29.1107 29.7858C29.3711 29.6198 29.4339 29.1144 29.6552 28.8496C29.8766 28.5848 28.7493 27.8104 28.5696 27.4073C28.415 27.3644 28.0711 27.5409 27.9872 27.4633C27.9033 27.3857 26.9447 27.3283 26.5096 27.3799C25.4624 27.3151 24.9322 27.1889 24.315 26.4455C25.4716 25.4673 26.724 24.6673 26.8363 23.3939C26.9485 22.1205 27.4317 22.2544 27.4317 22.2544L27.9557 22.0192C28.0878 21.692 29.892 22.5106 30.6919 23.2667C31.7565 24.1396 32.3589 24.9278 32.3672 26.0682C32.898 25.5864 32.8862 25.2337 32.9933 24.3937C33.1004 23.5537 31.8867 22.1368 31.9616 21.4988C32.0935 19.0799 30.9211 17.3915 29.1524 17.2416C27.3838 17.0916 27.3231 16.8433 26.505 16.6709Z" fill="#5E17F9"/>
<path d="M11.8836 17.9513C12.0303 17.6623 12.1238 17.4185 12.1805 17.2143L11.4882 18.8597L12.8774 18.2267L12.8679 18.2299C12.2472 18.4398 11.5087 18.6895 11.8836 17.9513Z" fill="#5E17F9"/>
<path d="M1.91192 5.72403C1.92525 5.73725 1.93849 5.75031 1.95164 5.76321M1.95164 5.76321C2.59871 6.39767 3.04889 6.65475 3.92077 6.98738C2.65291 5.82389 1.28407 4.5173 1.0934 4.24704C0.902734 3.97678 1.06303 3.74944 1.06303 3.74944C2.06637 4.72699 2.73091 5.21404 4.18812 5.92005C4.18812 5.92005 3.36388 5.49734 2.51259 4.15118C1.6613 2.80503 1.85704 2.35399 1.66139 1.36064C2.90301 3.823 4.13977 4.99448 6.95242 6.84923C5.36548 5.29217 3.83283 3.21259 3.61931 2.82729C3.40579 2.44199 3.30192 1 3.30192 1C4.25566 3.29399 5.10986 4.46664 7.68762 6.18333L6.58671 5.00855C6.10382 3.842 5.15176 2.55785 4.94998 1.02192C6.46495 3.95623 7.57771 5.14493 9.78819 6.87421C9.44089 5.51132 7.7453 4.30125 8.08549 2.32576C7.82392 3.90563 10.7209 7.62496 11.9573 7.91022C11.5179 7.13384 11.0009 6.45283 10.8949 5.55032C11.3025 6.62713 13.1594 8.70939 13.6687 8.71066C13.4347 8.18219 13.3709 7.87599 13.3461 7.31676C13.795 8.32547 15.7638 9.91225 16.251 9.74775C18.7672 11.9333 20.269 13.4484 21.3486 15.1131M1.95164 5.76321C1.95164 5.76321 2.37456 6.55885 2.72031 7.03516C3.06606 7.51146 5.10298 8.45647 5.10298 8.45647C4.06004 8.33064 3.49027 8.21091 2.50388 7.89919C2.67384 8.36023 3.32334 8.72116 5.45364 9.53203C5.14334 9.67434 4.83569 9.69495 4.08277 9.64127C5.59597 10.0694 6.28497 10.3747 6.96135 11.1457L6.09392 11.7206C7.4855 12.1851 8.0866 12.421 8.77171 12.7888C8.61411 12.9887 8.39279 13.0483 7.67802 13.0293C8.09556 13.5417 8.56262 13.7686 9.62842 14.1134C9.62842 14.1134 9.52918 14.3033 9.87754 14.5629C10.2126 14.8126 11.056 14.7506 11.1199 14.7455M11.0242 15.9677C10.7342 15.8874 10.4522 15.157 10.4522 15.157C10.4522 15.157 10.9873 14.7599 11.1199 14.7455M11.0242 15.9677C11.3141 16.0481 12.1355 16.2758 12.1355 16.2758M11.0242 15.9677L12.1355 16.2758M12.1355 16.2758C12.1355 16.2758 12.3758 16.5108 12.1805 17.2143M13.2097 20.0072C13.2097 20.0072 13.16 18.96 13.5541 18.2452C13.7204 17.9434 13.3324 18.0729 12.8774 18.2267M13.2097 20.0072C13.2097 20.0072 14.3217 19.9255 14.5633 19.9924M13.2097 20.0072L14.5633 19.9924M14.5633 19.9924C14.8049 20.0594 14.3637 21.1074 14.1806 21.2197C13.9974 21.332 15.5114 21.7771 15.5114 21.7771C15.5114 21.7771 15.5062 22.2105 15.6995 22.2641C15.8928 22.3176 16.8005 22.2739 16.8005 22.2739C17.1688 22.6803 17.0385 23.3439 17.0802 23.3533C17.1219 23.3627 17.9499 23.5944 18.1432 23.6479C18.3365 23.7015 18.5477 23.2709 18.5477 23.2709C18.5477 23.2709 19.0309 23.4048 19.0893 23.584C19.1478 23.7633 18.2852 24.9375 18.2852 24.9375C16.7078 25.6868 13.9637 26.5118 13.7933 26.5733C13.6229 26.6348 13.3379 27.1537 13.5083 27.0922C13.6787 27.0307 14.5409 26.8892 14.5409 26.8892L12.9383 28.13C12.9383 28.13 12.8518 28.2691 12.8492 28.4858C12.8466 28.7025 14.1845 28.3123 14.1845 28.3123L12.9227 29.4302C12.9227 29.4302 12.6987 29.9116 12.6249 29.9999C12.5512 30.0881 13.2456 29.7914 13.2456 29.7914C13.2456 29.7914 14.1383 29.2185 14.1613 29.2299C14.1844 29.2413 12.8729 30.3426 12.7905 30.4806C12.7082 30.6186 12.18 30.855 12.6887 30.8872C13.1973 30.9195 13.876 30.7815 13.876 30.7815C13.876 30.7815 13.1923 31.6544 12.971 31.9192C12.7496 32.184 14.3259 31.6671 14.3259 31.6671C14.3259 31.6671 15.5338 30.6974 15.3484 31.2982C15.1631 31.8991 15.0009 32.8656 15.072 32.994C15.1432 33.1225 16.732 31.1382 16.732 31.1382C16.732 31.1382 16.5694 32.4553 16.6533 32.5329C16.7372 32.6105 17.7644 31.9678 17.7644 31.9678C17.7644 31.9678 18.7161 30.1118 18.4513 30.9624C18.1866 31.8131 18.7895 31.0562 18.7895 31.0562C18.7895 31.0562 18.7177 31.6688 18.2852 32.3642C17.8526 33.0596 20.1375 31.158 20.0663 31.0295C19.9952 30.9011 20.4176 30.0398 20.4176 30.0398C20.4555 29.7973 20.5243 29.7997 20.6974 29.9543C20.6974 29.9543 20.8499 30.377 20.8117 30.5295C20.7735 30.682 21.1424 30.2407 21.1424 30.2407L21.303 28.9807C21.303 28.9807 21.5733 29.4643 21.5877 29.4944C21.602 29.5246 21.7092 28.0349 21.7992 28.0312L22.1299 27.7423L23.6634 28.2217C23.6634 28.2217 24.0601 28.4947 23.9252 28.6204C23.7904 28.7461 23.5594 28.8016 23.5106 28.8316C23.4618 28.8615 22.8825 28.6575 22.7858 28.6307C22.6892 28.6039 22.1626 29.0559 22.2592 29.0827C22.3559 29.1094 22.0301 29.9975 22.0301 29.9975L22.8391 29.2434C22.8391 29.2434 22.8904 29.2448 23.1494 29.2421C23.4084 29.2394 23.2611 29.3617 23.4084 29.2395C23.5558 29.1172 23.6687 29.1378 23.6687 29.1378C23.6687 29.1378 24.0395 29.1956 24.1107 29.324C24.1819 29.4525 24.047 29.5782 24.047 29.5782C24.047 29.5782 24.0216 29.6798 23.8384 29.7921C23.6553 29.9044 23.5688 30.0435 23.5688 30.0435C23.4324 30.0914 23.1881 30.2786 22.7549 30.1984C22.7549 30.1984 23.0422 30.4954 23.1388 30.5222C23.2354 30.549 24.3419 30.2578 24.3419 30.2578C24.3428 30.4823 23.4989 30.8536 23.2785 30.9958L22.6961 31.0518C23.0822 31.1898 23.249 31.2479 23.4565 31.3169C23.864 31.2181 24.0544 31.2283 24.2998 30.9527L24.7258 30.5816L24.8531 30.0733C24.8531 30.0733 25.0809 29.3739 25.1077 29.0568C25.1346 28.7397 24.9835 28.545 24.7316 28.0829C24.7316 28.0829 23.2337 27.6678 23.1244 27.6918C23.015 27.7159 23.1576 27.2805 23.094 27.1942C23.0303 27.1079 23.277 26.8611 23.412 26.9562C23.5381 27.1044 23.5987 27.222 23.6967 27.47C24.0934 27.6299 24.3429 27.6907 24.808 27.778C26.2698 27.6812 26.8481 27.7209 26.7052 28.2494C26.5747 28.4708 26.5356 28.6262 26.2752 28.7281L25.9216 28.9019L25.8528 29.5894L26.0434 29.8597L26.0715 29.5413C26.0715 29.5413 26.1123 29.1722 26.1962 29.2498C26.2801 29.3274 26.4149 29.2017 26.4149 29.2017C26.6004 29.0201 26.9135 29.0681 26.9745 29.0307C27.0356 28.9932 26.8831 28.5705 27.0052 28.4956C27.1273 28.4208 27.6641 28.3001 27.8393 28.6725L27.9944 28.8785C28.4356 28.8351 28.365 29.0804 28.1188 29.6196L28.0806 29.7721C28.0806 29.7721 28.4825 29.6117 28.5818 29.4218C28.681 29.2318 28.7421 29.1944 28.6608 28.9001C28.5795 28.6058 28.0404 28.0759 28.0404 28.0759C28.4058 28.0629 28.6701 28.3656 29.1567 28.9832C29.2255 29.0486 29.1032 29.4032 29.1388 29.4674C29.1743 29.5316 29.1107 29.7858 29.1107 29.7858C29.3711 29.6198 29.4339 29.1144 29.6552 28.8496C29.8766 28.5848 28.7493 27.8104 28.5696 27.4073C28.415 27.3644 28.0711 27.5409 27.9872 27.4633C27.9033 27.3857 26.9447 27.3283 26.5096 27.3799C25.4624 27.3151 24.9322 27.1889 24.315 26.4455C25.4716 25.4673 26.724 24.6673 26.8363 23.3939C26.9485 22.1205 27.4317 22.2544 27.4317 22.2544L27.9557 22.0192C28.0878 21.692 29.892 22.5106 30.6919 23.2667C31.7565 24.1396 32.3589 24.9278 32.3672 26.0682C32.898 25.5864 32.8862 25.2337 32.9933 24.3937C33.1004 23.5537 31.8867 22.1368 31.9616 21.4988C32.0935 19.0799 30.9211 17.3915 29.1524 17.2416C27.3838 17.0916 27.3231 16.8433 26.505 16.6709L26.2637 15.5713C26.5374 14.6244 26.8389 14.1001 27.0681 13.1852C27.0362 12.8035 26.9845 12.6528 26.8216 12.519C25.3976 9.95512 24.5657 8.19777 24.6591 5.8864C24.2272 7.60517 24.3697 8.09563 24.6834 9.91532C23.7916 8.24543 23.4483 6.84714 23.4081 5.10483C23.1103 5.28577 23.1133 8.7286 23.5158 9.72676M23.5158 9.72676C23.6024 9.81392 23.6923 9.90249 23.7856 9.99263C23.6811 10.0155 23.5914 9.9143 23.5158 9.72676ZM23.5158 9.72676C21.5249 7.72261 21.2726 6.46454 20.4759 4.02044C20.3037 6.33625 20.6583 7.54562 22.0282 9.99475C20.0111 7.87177 19.2763 6.45004 18.3346 3.69872C17.8387 5.82111 18.5431 7.21486 19.9988 9.4323C18.4676 8.24501 17.8016 7.33325 16.8844 5.36228C16.7543 7.29121 17.5216 8.63164 19.0052 10.5111L21.3486 15.1131M21.3486 15.1131C21.882 15.9356 22.324 16.7481 22.7228 17.7425L21.3486 15.1131ZM11.1199 14.7455C11.1212 14.7454 11.1225 14.7453 11.1237 14.7452C11.1237 14.7452 11.1224 14.7453 11.1199 14.7455ZM12.1805 17.2143C12.1238 17.4185 12.0303 17.6623 11.8836 17.9513C11.5087 18.6895 12.2472 18.4398 12.8679 18.2299M12.1805 17.2143L11.4882 18.8597L12.8774 18.2267M12.8774 18.2267L12.8679 18.2299M12.8774 18.2267C12.8743 18.2278 12.8711 18.2289 12.8679 18.2299" stroke="#5E17F9" stroke-width="0.3"/>
<path d="M20.0509 14.8233C20.404 14.9691 20.523 14.9303 20.616 14.6801L22.1792 17.7044L21.7833 18.0658L20.0509 14.8233Z" fill="#5E17F9"/>
<path d="M18.535 14.5335C19.7622 14.0007 20.5271 13.763 20.6121 12.3235L24.398 19.5721L23.0983 20.5501L18.535 14.5335Z" fill="#5E17F9"/>
</svg>
