<svg width="492" height="91" viewBox="0 0 492 91" fill="none" xmlns="http://www.w3.org/2000/svg">
<path d="M67.3866 12.3585C67.3866 13.3644 66.5712 14.1798 65.5653 14.1798H15.5457C14.5399 14.1798 13.7245 14.9952 13.7245 16.0011V40.523C13.7245 41.5289 14.5399 42.3443 15.5457 42.3443H65.5653C66.5712 42.3443 67.3866 43.1597 67.3866 44.1655V88.6563C67.3866 89.6621 66.5712 90.4775 65.5653 90.4775H1.82126C0.815409 90.4775 0 89.6621 0 88.6563V76.688C0 75.6822 0.815406 74.8668 1.82126 74.8668H49.7594C50.7653 74.8668 51.5807 74.0513 51.5807 73.0455V57.89C51.5807 56.8842 50.7653 56.0688 49.7594 56.0688H1.82126C0.815403 56.0688 0 55.2534 0 54.2475V1.82126C0 0.815407 0.815406 0 1.82126 0H65.5653C66.5712 0 67.3866 0.815406 67.3866 1.82126V12.3585Z" fill="#CCCCCC"/>
<path d="M75.9708 20.2941C74.9649 20.2941 74.1495 21.1096 74.1495 22.1154V88.5914C74.1495 89.5972 74.9649 90.4126 75.9708 90.4126H94.7037C95.7096 90.4126 96.525 89.5972 96.525 88.5914V22.1154C96.525 21.1096 95.7096 20.2941 94.7037 20.2941H75.9708Z" fill="#CCCCCC"/>
<path d="M75.9708 14.1799C74.9649 14.1799 74.1495 13.3645 74.1495 12.3587V1.82138C74.1495 0.815527 74.9649 0.00012207 75.9708 0.00012207H101.729C102.734 0.00012207 103.55 0.815528 103.55 1.82138V12.3587C103.55 13.3645 102.734 14.1799 101.729 14.1799H75.9708Z" fill="#5508FC"/>
<path d="M103.424 90.4781C102.418 90.4781 101.602 89.6627 101.602 88.6569V22.1159C101.602 21.11 102.418 20.2946 103.424 20.2946H131.068L135.621 20.3597H159.753C160.758 20.3597 161.574 21.1751 161.574 22.1809V80.7214C161.574 81.7272 162.389 82.5426 163.395 82.5426H232.084C233.09 82.5426 233.905 83.3581 233.905 84.3639V88.6569C233.905 89.6627 233.09 90.4781 232.084 90.4781H149.866C148.86 90.4781 148.044 89.6627 148.044 88.6569V40.6537C148.044 39.6478 147.229 38.8324 146.223 38.8324H137.442C136.436 38.8324 135.621 39.6478 135.621 40.6537V70.3792C135.621 71.3851 134.805 72.2005 133.8 72.2005H130.547C129.541 72.2005 128.726 71.3851 128.726 70.3792V40.6537C128.726 39.6478 127.911 38.8324 126.905 38.8324H117.213C116.207 38.8324 115.392 39.6478 115.392 40.6537V88.6569C115.392 89.6627 114.576 90.4781 113.571 90.4781H103.424Z" fill="#CCCCCC"/>
<path fill-rule="evenodd" clip-rule="evenodd" d="M166.647 74.6717C166.647 75.6776 167.463 76.493 168.468 76.493H231.887C232.893 76.493 233.709 75.6776 233.709 74.6717V22.1154C233.709 21.1096 232.893 20.2941 231.887 20.2941H207.951H166.647V74.6717ZM177.445 63.6791C176.439 63.6791 175.623 62.8637 175.623 61.8579V38.4417C175.623 37.4358 176.439 36.6204 177.445 36.6204H222.196C223.201 36.6204 224.017 37.4358 224.017 38.4417V61.8579C224.017 62.8637 223.201 63.6791 222.196 63.6791H177.445Z" fill="#CCCCCC"/>
<path fill-rule="evenodd" clip-rule="evenodd" d="M168.468 0.00012207C167.463 0.00012207 166.647 0.815528 166.647 1.82138V20.2941H207.951V1.82138C207.951 0.815529 207.135 0.00012207 206.129 0.00012207H168.468ZM197.869 18.4729C197.869 19.4787 197.053 20.2941 196.047 20.2941H177.445C176.439 20.2941 175.623 19.4787 175.623 18.4729V11.5131C175.623 10.5072 176.439 9.69182 177.445 9.69182H196.047C197.053 9.69182 197.869 10.5072 197.869 11.5131V18.4729Z" fill="#CCCCCC"/>
<path d="M242.357 14.1799C241.351 14.1799 240.536 13.3645 240.536 12.3587V1.82138C240.536 0.815527 241.351 0.00012207 242.357 0.00012207H273.904C274.91 0.00012207 275.725 0.815528 275.725 1.82138V12.3587C275.725 13.3645 274.91 14.1799 273.904 14.1799H242.357Z" fill="#5508FC"/>
<path d="M242.357 20.2941C241.351 20.2941 240.536 21.1096 240.536 22.1154V88.5914C240.536 89.5972 241.351 90.4126 242.357 90.4126H261.09C262.096 90.4126 262.911 89.5972 262.911 88.5914V22.1154C262.911 21.1096 262.096 20.2941 261.09 20.2941H242.357Z" fill="#CCCCCC"/>
<path fill-rule="evenodd" clip-rule="evenodd" d="M272.201 20.4238C271.196 20.4238 270.381 21.2379 270.38 22.243L270.328 69.5958C270.327 70.6024 271.142 71.419 272.149 71.419H326.264C327.27 71.419 328.086 70.6036 328.086 69.5978V22.245C328.086 21.2392 327.27 20.4238 326.264 20.4238H272.201ZM290.229 63.0933C289.224 63.0933 288.408 62.2779 288.408 61.272V37.2704C288.408 36.2646 289.224 35.4492 290.229 35.4492H309.093C310.098 35.4492 310.914 36.2646 310.914 37.2704V61.272C310.914 62.2779 310.098 63.0933 309.093 63.0933H290.229Z" fill="#CCCCCC"/>
<path d="M398.79 12.3587C398.79 13.3645 397.974 14.1799 396.968 14.1799H346.949C345.943 14.1799 345.127 14.9953 345.127 16.0012V40.5231C345.127 41.529 345.943 42.3444 346.949 42.3444H396.968C397.974 42.3444 398.79 43.1598 398.79 44.1657V88.6564C398.79 89.6623 397.974 90.4777 396.968 90.4777H272.147C271.141 90.4777 270.326 89.6623 270.326 88.6564V76.493C270.326 75.4871 271.141 74.6717 272.147 74.6717H381.162C382.168 74.6717 382.984 73.8563 382.984 72.8505V57.8901C382.984 56.8843 382.168 56.0689 381.162 56.0689H333.224C332.218 56.0689 331.403 55.2535 331.403 54.2476V1.82138C331.403 0.815529 332.218 0.00012207 333.224 0.00012207H396.968C397.974 0.00012207 398.79 0.815528 398.79 1.82138V12.3587Z" fill="#CCCCCC"/>
<path d="M403.929 0.00012207C402.923 0.00012207 402.108 0.815528 402.108 1.82138V88.5914C402.108 89.5972 402.923 90.4126 403.929 90.4126H490.179C491.184 90.4126 492 89.5972 492 88.5914V76.493C492 75.4871 491.184 74.6717 490.179 74.6717H430.792C429.787 74.6717 428.971 73.8563 428.971 72.8505V56.5892C428.971 55.5834 429.787 54.768 430.792 54.768H452.713C453.718 54.768 454.534 53.9526 454.534 52.9467V43.7103C454.534 42.7045 453.718 41.8891 452.713 41.8891H430.792C429.787 41.8891 428.971 41.0737 428.971 40.0678V16.4565C428.971 15.4506 429.787 14.6352 430.792 14.6352H476.064C477.07 14.6352 477.885 13.8198 477.885 12.814V1.82138C477.885 0.81553 477.07 0.00012207 476.064 0.00012207H403.929Z" fill="#CCCCCC"/>
</svg>
