<svg width="565" height="222" viewBox="0 0 565 222" fill="none" xmlns="http://www.w3.org/2000/svg">
<path d="M153.606 175.636C149.19 173.709 145.65 171.106 142.986 167.828C140.344 164.5 138.742 160.81 138.179 156.757C137.667 152.727 138.311 148.688 140.11 144.639C141.932 140.54 144.505 137.342 147.828 135.046C151.224 132.722 155.042 131.427 159.281 131.162C163.542 130.847 167.881 131.653 172.296 133.58C176.611 135.463 179.962 138.014 182.35 141.231C184.761 144.398 185.985 147.984 186.023 151.989L174.618 152.902C174.407 150.514 173.691 148.51 172.472 146.89C171.303 145.292 169.78 144.084 167.902 143.264C165.872 142.378 163.842 142.036 161.813 142.238C159.784 142.44 157.916 143.165 156.209 144.415C154.553 145.686 153.197 147.511 152.14 149.889C151.083 152.268 150.64 154.492 150.811 156.561C151.033 158.652 151.754 160.507 152.974 162.127C154.193 163.747 155.818 165 157.848 165.886C159.726 166.706 161.643 167.029 163.599 166.855C165.628 166.653 167.614 165.798 169.557 164.289L176.543 173.32C173.558 175.945 170.062 177.471 166.055 177.897C162.07 178.273 157.92 177.519 153.606 175.636Z" fill="url(#paint0_linear_14_548)"/>
<path d="M162.189 74.0501L160.664 68.9243C162.394 64.5103 164.3 62.0663 165.748 57.8016C165.546 56.0223 165.219 55.3198 164.19 54.6961C155.191 42.7445 149.933 34.5525 150.523 23.778C147.794 31.7901 148.694 34.0764 150.677 42.5589C145.041 34.7747 142.871 28.2565 142.617 20.1347C140.735 20.9782 140.754 37.027 143.298 41.6799C143.845 42.0862 144.413 42.4991 145.003 42.9193C144.343 43.0261 143.776 42.5542 143.298 41.6799C130.715 32.3376 129.121 26.4731 124.086 15.0798C122.997 25.875 125.239 31.5125 133.896 42.9292C121.148 33.0329 116.504 26.4055 110.553 13.5801C107.419 23.4737 111.871 29.9707 121.07 40.3073C111.393 34.7728 107.184 30.5226 101.388 21.3348C100.566 30.3266 105.415 36.575 114.791 45.336L129.601 66.7885C132.972 70.6224 135.766 74.41 138.286 79.0453L129.601 66.7885C122.778 59.0285 113.287 51.9658 97.3848 41.7778C94.306 42.5446 81.8633 35.1478 79.0264 30.4457C79.1832 33.0525 79.5863 34.4799 81.0652 36.9434C77.8459 36.9375 66.1109 27.231 63.5349 22.2114C64.2045 26.4185 67.4723 29.593 70.2493 33.2121C62.4352 31.8824 44.1265 14.5446 45.7796 7.18006C43.6296 16.3888 54.3456 22.0296 56.5405 28.3827C42.5705 20.3217 35.538 14.7805 25.9635 1.1022C27.2387 8.26194 33.2557 14.248 36.3075 19.6859L43.2651 25.1622C26.9739 17.1598 21.5754 11.6935 15.5479 1C15.5479 1 16.2043 7.72185 17.5538 9.51794C18.9032 11.314 28.5894 21.008 38.6187 28.2663C20.843 19.6203 13.0269 14.1595 5.17992 2.68111C6.41643 7.31164 5.17938 9.41417 10.5594 15.6893C15.9395 21.9644 21.1486 23.9349 21.1486 23.9349C11.9392 20.6438 7.73936 18.3734 1.39833 13.8165C1.39833 13.8165 0.385288 14.8763 1.5903 16.1361C2.79532 17.396 11.4463 23.4867 19.459 28.9103C13.9488 27.3597 11.1037 26.1613 7.01429 23.2038C7.01429 23.2038 9.68708 26.9127 11.8722 29.133C14.0573 31.3533 26.9304 35.7584 26.9304 35.7584C20.3391 35.1719 16.7383 34.6138 10.5044 33.1607C11.5785 35.3098 15.6833 36.9923 29.1466 40.7722C27.1855 41.4356 25.2412 41.5316 20.4828 41.2814C30.0461 43.2772 34.4005 44.7005 38.6752 48.2942L33.1931 50.9741C41.9877 53.1394 45.7866 54.2392 50.1165 55.9539C49.1205 56.8855 47.7217 57.1636 43.2044 57.0746C45.8432 59.4631 48.795 60.5212 55.5308 62.1282C55.5308 62.1282 54.9036 63.0134 57.1052 64.2236C59.2228 65.3876 64.553 65.0987 64.9565 65.0749C64.9649 65.0742 64.973 65.0738 64.9808 65.0734C64.9808 65.0734 64.9725 65.074 64.9565 65.0749C64.1187 65.1419 60.7367 66.9929 60.7367 66.9929C60.7367 66.9929 62.5195 70.3979 64.3517 70.7724L71.3752 72.2082C71.3752 72.2082 72.8941 73.3039 71.6597 76.583C71.3012 77.5353 70.7106 78.6716 69.7831 80.0188C67.4138 83.4601 72.0811 82.2961 76.0042 81.3177C76.0242 81.3127 76.0442 81.3077 76.0641 81.3027C78.9394 80.5857 81.392 79.9819 80.3406 81.3887C77.8503 84.7209 78.1641 89.6022 78.1641 89.6022L86.7186 89.5335C88.2454 89.8457 85.4575 94.7311 84.3 95.2546C83.1425 95.7781 92.7107 97.8529 92.7107 97.8529C92.7107 97.8529 92.6778 99.8731 93.8993 100.123C95.1207 100.373 100.858 100.168 100.858 100.168C103.185 102.063 102.362 105.157 102.625 105.2C102.889 105.244 108.122 106.324 109.343 106.574C110.565 106.823 111.9 104.816 111.9 104.816C111.9 104.816 114.953 105.44 115.323 106.276C115.692 107.112 110.241 112.585 110.241 112.585C100.272 116.078 82.9295 119.924 81.8524 120.21C80.7754 120.497 78.9742 122.916 80.0513 122.629C81.1283 122.343 86.5774 121.683 86.5774 121.683L76.4489 127.467C76.4489 127.467 75.9022 128.115 75.8857 129.125C75.8692 130.136 84.3246 128.317 84.3246 128.317L76.3501 133.528C76.3501 133.528 74.9348 135.772 74.4685 136.183C74.0022 136.595 78.3908 135.212 78.3908 135.212C78.3908 135.212 84.0326 132.541 84.1783 132.594C84.3239 132.647 76.0353 137.781 75.515 138.424C74.9946 139.068 71.6567 140.169 74.8713 140.32C78.0859 140.47 82.3752 139.827 82.3752 139.827C82.3752 139.827 78.0541 143.896 76.6553 145.13C75.2564 146.365 85.2186 143.955 85.2186 143.955C85.2186 143.955 92.8522 139.435 91.6808 142.236C90.5093 145.037 89.4841 149.542 89.9339 150.141C90.3838 150.739 100.425 141.49 100.425 141.49C100.425 141.49 99.3969 147.629 99.9272 147.991C100.457 148.353 106.949 145.357 106.949 145.357C106.949 145.357 112.964 136.705 111.291 140.67C109.617 144.636 113.428 141.107 113.428 141.107C113.428 141.107 112.974 143.963 110.241 147.205C107.507 150.446 121.947 141.582 121.497 140.983C121.048 140.385 123.717 136.37 123.717 136.37C123.957 135.239 124.391 135.25 125.486 135.971C125.486 135.971 126.449 137.942 126.208 138.652C125.966 139.363 128.298 137.306 128.298 137.306L129.313 131.433C129.313 131.433 131.022 133.687 131.112 133.827C131.203 133.968 131.88 127.023 132.449 127.006L134.539 125.66L144.23 127.894C144.23 127.894 146.737 129.167 145.885 129.753C145.033 130.339 143.573 130.598 143.265 130.737C142.956 130.877 139.295 129.926 138.684 129.801C138.074 129.676 134.746 131.783 135.356 131.908C135.967 132.033 133.908 136.172 133.908 136.172L139.021 132.657C139.021 132.657 139.345 132.664 140.982 132.651C142.619 132.639 141.688 133.208 142.619 132.639C143.55 132.069 144.264 132.165 144.264 132.165C144.264 132.165 146.607 132.434 147.057 133.033C147.507 133.632 146.655 134.218 146.655 134.218C146.655 134.218 146.494 134.691 145.337 135.215C144.179 135.738 143.632 136.387 143.632 136.387C142.77 136.61 141.227 137.483 138.489 137.109C138.489 137.109 140.304 138.493 140.915 138.618C141.526 138.743 148.518 137.386 148.518 137.386C148.524 138.432 143.191 140.163 141.798 140.826L138.117 141.087C140.557 141.73 141.612 142.001 142.923 142.323C145.498 141.862 146.702 141.91 148.253 140.625L150.945 138.895L151.749 136.526C151.749 136.526 153.189 133.266 153.359 131.787C153.528 130.309 152.574 129.401 150.981 127.247C150.981 127.247 141.515 125.312 140.824 125.424C140.133 125.536 141.034 123.507 140.632 123.105C140.229 122.702 141.788 121.552 142.641 121.995C143.438 122.686 143.822 123.234 144.441 124.39C146.948 125.136 148.525 125.419 151.464 125.826C160.703 125.375 164.357 125.56 163.454 128.024C162.63 129.055 162.383 129.78 160.737 130.255L158.502 131.065L158.067 134.27L159.272 135.53L159.449 134.046C159.449 134.046 159.707 132.325 160.238 132.687C160.768 133.049 161.62 132.463 161.62 132.463C162.792 131.616 164.771 131.84 165.156 131.665C165.542 131.491 164.579 129.52 165.35 129.171C166.122 128.822 169.515 128.26 170.622 129.996L171.602 130.956C174.391 130.754 173.944 131.897 172.388 134.411L172.147 135.121C172.147 135.121 174.687 134.374 175.314 133.488C175.941 132.603 176.327 132.429 175.813 131.057C175.3 129.685 171.893 127.215 171.893 127.215C174.202 127.154 175.873 128.565 178.948 131.444C179.383 131.749 178.609 133.402 178.834 133.701C179.059 134.001 178.657 135.185 178.657 135.185C180.303 134.412 180.699 132.056 182.098 130.821C183.497 129.587 176.373 125.977 175.237 124.098C174.26 123.898 172.087 124.721 171.557 124.359C171.026 123.997 164.968 123.73 162.218 123.97C155.6 123.668 152.249 123.08 148.348 119.615C155.658 115.055 163.573 111.325 164.283 105.389C164.992 99.4536 168.046 100.078 168.046 100.078L171.357 98.9812C172.192 97.4563 183.594 101.272 188.65 104.797C195.378 108.866 199.185 112.54 199.237 117.856C202.592 115.61 202.518 113.966 203.195 110.05C203.871 106.134 196.201 99.5293 196.674 96.5553C197.508 85.2798 190.098 77.4093 178.921 76.7103C167.743 76.0114 167.359 74.8536 162.189 74.0501Z" fill="#5E17F9"/>
<path d="M69.7831 80.0188C70.7106 78.6716 71.3012 77.5353 71.6597 76.583L67.2847 84.2533L76.0641 81.3027L76.0042 81.3177C72.0811 82.2961 67.4138 83.4601 69.7831 80.0188Z" fill="#5E17F9"/>
<path d="M6.76324 23.0212C6.84746 23.0828 6.93113 23.1436 7.01429 23.2038M7.01429 23.2038C11.1037 26.1613 13.9488 27.3597 19.459 28.9103C11.4463 23.4867 2.79532 17.396 1.5903 16.1361C0.385288 14.8763 1.39833 13.8165 1.39833 13.8165C7.73936 18.3734 11.9392 20.6438 21.1486 23.9349C21.1486 23.9349 15.9395 21.9644 10.5594 15.6893C5.17938 9.41417 6.41643 7.31164 5.17992 2.68111C13.0269 14.1595 20.843 19.6203 38.6187 28.2663C28.5894 21.008 18.9032 11.314 17.5538 9.51794C16.2043 7.72185 15.5479 1 15.5479 1C21.5754 11.6935 26.9739 17.1598 43.2651 25.1622L36.3075 19.6859C33.2557 14.248 27.2387 8.26194 25.9635 1.1022C35.538 14.7805 42.5705 20.3217 56.5405 28.3827C54.3456 22.0296 43.6296 16.3888 45.7796 7.18006C44.1265 14.5446 62.4352 31.8824 70.2493 33.2121C67.4723 29.593 64.2045 26.4185 63.5349 22.2114C66.1109 27.231 77.8459 36.9375 81.0652 36.9434C79.5862 34.4799 79.1832 33.0525 79.0264 30.4457C81.8633 35.1478 94.306 42.5446 97.3848 41.7778C113.287 51.9658 122.778 59.0285 129.601 66.7885M7.01429 23.2038C7.01429 23.2038 9.68708 26.9127 11.8722 29.133C14.0573 31.3533 26.9304 35.7584 26.9304 35.7584C20.3391 35.1719 16.7383 34.6138 10.5044 33.1607C11.5785 35.3098 15.6833 36.9923 29.1466 40.7722C27.1855 41.4356 25.2412 41.5316 20.4828 41.2814C30.0461 43.2772 34.4005 44.7005 38.6752 48.2942L33.1931 50.9741C41.9877 53.1394 45.7866 54.2392 50.1164 55.9539C49.1205 56.8855 47.7217 57.1636 43.2044 57.0746C45.8432 59.4631 48.795 60.5212 55.5308 62.1282C55.5308 62.1282 54.9036 63.0134 57.1052 64.2236C59.2228 65.3876 64.553 65.0987 64.9565 65.0749M64.3517 70.7724C62.5195 70.3979 60.7367 66.9929 60.7367 66.9929C60.7367 66.9929 64.1187 65.1419 64.9565 65.0749M64.3517 70.7724C66.1839 71.147 71.3752 72.2082 71.3752 72.2082M64.3517 70.7724L71.3752 72.2082M71.3752 72.2082C71.3752 72.2082 72.8941 73.3039 71.6597 76.583M78.1641 89.6022C78.1641 89.6022 77.8503 84.7209 80.3406 81.3887C81.392 79.9819 78.9394 80.5857 76.0641 81.3027M78.1641 89.6022C78.1641 89.6022 85.1917 89.2214 86.7186 89.5335M78.1641 89.6022L86.7186 89.5335M86.7186 89.5335C88.2454 89.8457 85.4575 94.7311 84.3 95.2546C83.1425 95.7781 92.7107 97.8529 92.7107 97.8529C92.7107 97.8529 92.6778 99.8731 93.8993 100.123C95.1207 100.373 100.858 100.168 100.858 100.168C103.185 102.063 102.362 105.157 102.625 105.2C102.889 105.244 108.122 106.324 109.343 106.574C110.565 106.823 111.9 104.816 111.9 104.816C111.9 104.816 114.953 105.44 115.323 106.276C115.692 107.112 110.241 112.585 110.241 112.585C100.272 116.078 82.9295 119.924 81.8524 120.21C80.7754 120.497 78.9742 122.916 80.0513 122.629C81.1283 122.343 86.5774 121.683 86.5774 121.683L76.4489 127.467C76.4489 127.467 75.9022 128.115 75.8857 129.125C75.8692 130.136 84.3246 128.317 84.3246 128.317L76.3501 133.528C76.3501 133.528 74.9348 135.772 74.4685 136.183C74.0022 136.595 78.3908 135.212 78.3908 135.212C78.3908 135.212 84.0326 132.541 84.1782 132.594C84.3239 132.647 76.0353 137.781 75.515 138.424C74.9946 139.068 71.6567 140.169 74.8713 140.32C78.0859 140.47 82.3752 139.827 82.3752 139.827C82.3752 139.827 78.0541 143.896 76.6553 145.13C75.2564 146.365 85.2186 143.955 85.2186 143.955C85.2186 143.955 92.8522 139.435 91.6808 142.236C90.5093 145.037 89.4841 149.542 89.9339 150.141C90.3838 150.739 100.425 141.49 100.425 141.49C100.425 141.49 99.3969 147.629 99.9272 147.991C100.457 148.353 106.949 145.357 106.949 145.357C106.949 145.357 112.964 136.705 111.291 140.67C109.617 144.636 113.428 141.107 113.428 141.107C113.428 141.107 112.974 143.963 110.241 147.205C107.507 150.446 121.947 141.582 121.497 140.983C121.048 140.385 123.717 136.37 123.717 136.37C123.957 135.239 124.391 135.25 125.486 135.971C125.486 135.971 126.449 137.942 126.208 138.652C125.966 139.363 128.298 137.306 128.298 137.306L129.313 131.433C129.313 131.433 131.022 133.687 131.112 133.827C131.203 133.968 131.88 127.023 132.449 127.006L134.539 125.66L144.23 127.894C144.23 127.894 146.737 129.167 145.885 129.753C145.033 130.339 143.573 130.598 143.265 130.737C142.956 130.877 139.295 129.926 138.684 129.801C138.074 129.676 134.746 131.783 135.356 131.908C135.967 132.033 133.908 136.172 133.908 136.172L139.021 132.657C139.021 132.657 139.345 132.664 140.982 132.651C142.619 132.639 141.688 133.208 142.619 132.639C143.55 132.069 144.264 132.165 144.264 132.165C144.264 132.165 146.607 132.434 147.057 133.033C147.507 133.632 146.655 134.218 146.655 134.218C146.655 134.218 146.494 134.691 145.337 135.215C144.179 135.738 143.632 136.387 143.632 136.387C142.77 136.61 141.227 137.483 138.489 137.109C138.489 137.109 140.304 138.494 140.915 138.618C141.526 138.743 148.518 137.386 148.518 137.386C148.524 138.432 143.191 140.163 141.798 140.826L138.117 141.087C140.557 141.73 141.612 142.001 142.923 142.323C145.498 141.862 146.702 141.91 148.253 140.625L150.945 138.895L151.749 136.526C151.749 136.526 153.189 133.266 153.359 131.787C153.528 130.309 152.574 129.401 150.981 127.247C150.981 127.247 141.515 125.312 140.824 125.424C140.133 125.536 141.034 123.507 140.632 123.105C140.229 122.702 141.788 121.552 142.641 121.995C143.438 122.686 143.822 123.234 144.441 124.39C146.948 125.136 148.525 125.419 151.464 125.826C160.703 125.375 164.357 125.56 163.454 128.024C162.63 129.055 162.383 129.78 160.737 130.255L158.502 131.065L158.067 134.27L159.272 135.53L159.449 134.046C159.449 134.046 159.707 132.325 160.238 132.687C160.768 133.049 161.62 132.463 161.62 132.463C162.792 131.616 164.771 131.84 165.156 131.665C165.542 131.491 164.579 129.52 165.35 129.171C166.122 128.822 169.515 128.26 170.622 129.996L171.602 130.956C174.391 130.754 173.944 131.897 172.388 134.411L172.147 135.121C172.147 135.121 174.687 134.374 175.314 133.488C175.941 132.603 176.327 132.429 175.813 131.057C175.3 129.685 171.893 127.215 171.893 127.215C174.202 127.154 175.873 128.565 178.948 131.444C179.383 131.749 178.609 133.402 178.834 133.701C179.059 134.001 178.657 135.185 178.657 135.185C180.303 134.412 180.699 132.056 182.098 130.821C183.497 129.587 176.373 125.977 175.237 124.098C174.26 123.898 172.087 124.721 171.557 124.359C171.026 123.997 164.968 123.73 162.218 123.97C155.6 123.668 152.249 123.08 148.348 119.615C155.658 115.055 163.573 111.325 164.283 105.389C164.992 99.4536 168.046 100.078 168.046 100.078L171.357 98.9812C172.192 97.4563 183.594 101.272 188.65 104.797C195.378 108.866 199.185 112.54 199.237 117.856C202.592 115.61 202.518 113.966 203.195 110.05C203.871 106.134 196.201 99.5293 196.674 96.5553C197.508 85.2798 190.098 77.4093 178.921 76.7103C167.743 76.0114 167.359 74.8536 162.189 74.0501L160.664 68.9243C162.394 64.5103 164.3 62.0663 165.748 57.8016C165.546 56.0223 165.219 55.3198 164.19 54.6961C155.191 42.7445 149.933 34.5525 150.523 23.778C147.794 31.7901 148.694 34.0764 150.677 42.5589C145.041 34.7747 142.871 28.2565 142.617 20.1347C140.735 20.9782 140.754 37.027 143.298 41.6799M143.298 41.6799C143.845 42.0862 144.413 42.4991 145.003 42.9193C144.343 43.0261 143.776 42.5542 143.298 41.6799ZM143.298 41.6799C130.715 32.3376 129.121 26.4731 124.086 15.0798C122.997 25.875 125.239 31.5125 133.896 42.9292C121.148 33.0329 116.504 26.4055 110.553 13.5801C107.419 23.4737 111.871 29.9707 121.07 40.3073C111.393 34.7728 107.184 30.5226 101.388 21.3348C100.566 30.3266 105.415 36.575 114.791 45.336L129.601 66.7885M129.601 66.7885C132.972 70.6224 135.766 74.41 138.286 79.0453L129.601 66.7885ZM64.9565 65.0749C64.9649 65.0743 64.973 65.0738 64.9808 65.0735C64.9808 65.0735 64.9725 65.074 64.9565 65.0749ZM71.6597 76.583C71.3012 77.5353 70.7106 78.6716 69.7831 80.0188C67.4138 83.4601 72.0811 82.2961 76.0042 81.3177M71.6597 76.583L67.2847 84.2533L76.0641 81.3027M76.0641 81.3027L76.0042 81.3177M76.0641 81.3027C76.0442 81.3077 76.0242 81.3127 76.0042 81.3177" stroke="#5E17F9" stroke-width="0.3"/>
<path d="M121.396 65.4371C123.627 66.117 124.38 65.9358 124.968 64.7698L134.847 78.8674L132.345 80.552L121.396 65.4371Z" fill="#5E17F9"/>
<path d="M111.823 64.0859C119.579 61.6023 124.413 60.4941 124.95 53.7842L148.876 87.5737L140.663 92.1325L111.823 64.0859Z" fill="#5E17F9"/>
<path d="M192.222 201.175V156.482H204.599V169.109L202.855 165.454C204.184 162.297 206.316 159.916 209.251 158.31C212.187 156.648 215.759 155.818 219.968 155.818V167.78C219.414 167.725 218.916 167.697 218.473 167.697C218.029 167.642 217.559 167.614 217.06 167.614C213.516 167.614 210.636 168.638 208.421 170.688C206.261 172.681 205.181 175.81 205.181 180.075V201.175H192.222ZM248.615 201.84C243.853 201.84 239.616 200.843 235.905 198.849C232.25 196.855 229.343 194.142 227.183 190.708C225.078 187.219 224.026 183.259 224.026 178.829C224.026 174.343 225.078 170.383 227.183 166.949C229.343 163.46 232.25 160.747 235.905 158.808C239.616 156.814 243.853 155.818 248.615 155.818C253.323 155.818 257.532 156.814 261.242 158.808C264.953 160.747 267.86 163.433 269.965 166.866C272.069 170.3 273.122 174.287 273.122 178.829C273.122 183.259 272.069 187.219 269.965 190.708C267.86 194.142 264.953 196.855 261.242 198.849C257.532 200.843 253.323 201.84 248.615 201.84ZM248.615 191.206C250.775 191.206 252.714 190.708 254.43 189.711C256.147 188.714 257.504 187.302 258.501 185.474C259.498 183.591 259.996 181.376 259.996 178.829C259.996 176.226 259.498 174.01 258.501 172.183C257.504 170.355 256.147 168.943 254.43 167.946C252.714 166.949 250.775 166.451 248.615 166.451C246.456 166.451 244.517 166.949 242.8 167.946C241.084 168.943 239.699 170.355 238.647 172.183C237.65 174.01 237.151 176.226 237.151 178.829C237.151 181.376 237.65 183.591 238.647 185.474C239.699 187.302 241.084 188.714 242.8 189.711C244.517 190.708 246.456 191.206 248.615 191.206ZM290.785 201.175L274.669 156.482H286.881L300.255 194.945H294.44L308.396 156.482H319.362L332.903 194.945H327.088L340.878 156.482H352.341L336.142 201.175H323.598L311.719 168.195H315.54L303.246 201.175H290.785ZM376.339 201.84C372.13 201.84 368.336 200.898 364.958 199.015C361.58 197.077 358.894 194.391 356.9 190.957C354.962 187.524 353.993 183.481 353.993 178.829C353.993 174.121 354.962 170.051 356.9 166.617C358.894 163.183 361.58 160.525 364.958 158.642C368.336 156.759 372.13 155.818 376.339 155.818C380.105 155.818 383.4 156.648 386.225 158.31C389.049 159.971 391.237 162.491 392.787 165.869C394.338 169.248 395.113 173.567 395.113 178.829C395.113 184.034 394.366 188.354 392.87 191.788C391.375 195.166 389.215 197.686 386.391 199.347C383.622 201.009 380.271 201.84 376.339 201.84ZM378.582 191.206C380.686 191.206 382.597 190.708 384.314 189.711C386.031 188.714 387.388 187.302 388.384 185.474C389.437 183.591 389.963 181.376 389.963 178.829C389.963 176.226 389.437 174.01 388.384 172.183C387.388 170.355 386.031 168.943 384.314 167.946C382.597 166.949 380.686 166.451 378.582 166.451C376.422 166.451 374.484 166.949 372.767 167.946C371.05 168.943 369.666 170.355 368.613 172.183C367.616 174.01 367.118 176.226 367.118 178.829C367.118 181.376 367.616 183.591 368.613 185.474C369.666 187.302 371.05 188.714 372.767 189.711C374.484 190.708 376.422 191.206 378.582 191.206ZM390.295 201.175V192.037L390.544 178.746L389.714 165.537V139.535H402.673V201.175H390.295ZM429.703 201.84C425.882 201.84 422.199 201.397 418.655 200.51C415.166 199.569 412.396 198.406 410.347 197.021L414.667 187.717C416.716 188.991 419.125 190.043 421.894 190.874C424.719 191.649 427.488 192.037 430.202 192.037C433.192 192.037 435.297 191.677 436.515 190.957C437.789 190.237 438.426 189.24 438.426 187.967C438.426 186.914 437.927 186.139 436.93 185.641C435.989 185.087 434.715 184.671 433.109 184.394C431.503 184.118 429.731 183.841 427.792 183.564C425.91 183.287 423.999 182.927 422.061 182.484C420.122 181.985 418.35 181.265 416.744 180.324C415.138 179.382 413.836 178.109 412.839 176.503C411.898 174.897 411.427 172.82 411.427 170.272C411.427 167.448 412.23 164.956 413.836 162.796C415.498 160.636 417.879 158.947 420.981 157.728C424.082 156.454 427.792 155.818 432.112 155.818C435.158 155.818 438.26 156.15 441.416 156.814C444.573 157.479 447.204 158.448 449.308 159.722L444.988 168.943C442.829 167.669 440.641 166.811 438.426 166.368C436.266 165.869 434.161 165.62 432.112 165.62C429.232 165.62 427.128 166.008 425.799 166.783C424.47 167.558 423.805 168.555 423.805 169.774C423.805 170.881 424.276 171.712 425.217 172.266C426.214 172.82 427.516 173.263 429.122 173.595C430.728 173.927 432.472 174.232 434.355 174.509C436.294 174.73 438.232 175.09 440.17 175.589C442.109 176.087 443.853 176.807 445.404 177.749C447.01 178.635 448.311 179.881 449.308 181.487C450.305 183.038 450.804 185.087 450.804 187.634C450.804 190.403 449.973 192.868 448.311 195.028C446.65 197.132 444.241 198.794 441.084 200.012C437.983 201.23 434.189 201.84 429.703 201.84ZM479.816 217.956C475.607 217.956 471.537 217.43 467.605 216.377C463.728 215.38 460.488 213.857 457.885 211.808L463.036 202.504C464.919 204.055 467.3 205.273 470.18 206.159C473.115 207.101 475.995 207.572 478.82 207.572C483.416 207.572 486.739 206.547 488.788 204.498C490.893 202.449 491.945 199.403 491.945 195.36V188.631L492.776 177.416L492.61 166.119V156.482H504.904V193.699C504.904 202.006 502.744 208.125 498.425 212.058C494.105 215.99 487.902 217.956 479.816 217.956ZM477.823 199.015C473.669 199.015 469.903 198.129 466.525 196.357C463.202 194.529 460.516 192.009 458.467 188.797C456.473 185.53 455.476 181.736 455.476 177.416C455.476 173.041 456.473 169.248 458.467 166.035C460.516 162.768 463.202 160.248 466.525 158.476C469.903 156.704 473.669 155.818 477.823 155.818C481.589 155.818 484.912 156.593 487.791 158.144C490.671 159.639 492.914 161.993 494.52 165.205C496.126 168.362 496.929 172.432 496.929 177.416C496.929 182.345 496.126 186.416 494.52 189.628C492.914 192.785 490.671 195.138 487.791 196.689C484.912 198.24 481.589 199.015 477.823 199.015ZM480.398 188.382C482.669 188.382 484.69 187.939 486.462 187.053C488.234 186.111 489.619 184.81 490.616 183.148C491.613 181.487 492.111 179.576 492.111 177.416C492.111 175.201 491.613 173.29 490.616 171.684C489.619 170.023 488.234 168.749 486.462 167.863C484.69 166.922 482.669 166.451 480.398 166.451C478.127 166.451 476.106 166.922 474.334 167.863C472.561 168.749 471.149 170.023 470.097 171.684C469.1 173.29 468.602 175.201 468.602 177.416C468.602 179.576 469.1 181.487 470.097 183.148C471.149 184.81 472.561 186.111 474.334 187.053C476.106 187.939 478.127 188.382 480.398 188.382ZM544.131 155.818C547.675 155.818 550.832 156.538 553.601 157.977C556.425 159.362 558.641 161.522 560.247 164.457C561.853 167.337 562.656 171.048 562.656 175.589V201.175H549.696V177.583C549.696 173.983 548.893 171.324 547.287 169.608C545.737 167.891 543.521 167.032 540.642 167.032C538.592 167.032 536.737 167.475 535.076 168.362C533.47 169.192 532.196 170.494 531.254 172.266C530.368 174.038 529.925 176.309 529.925 179.078V201.175H516.966V156.482H529.344V168.86L527.018 165.122C528.624 162.131 530.922 159.833 533.913 158.227C536.903 156.621 540.309 155.818 544.131 155.818Z" fill="#5508FC"/>
<defs>
<linearGradient id="paint0_linear_14_548" x1="183.375" y1="100.618" x2="150.77" y2="175.32" gradientUnits="userSpaceOnUse">
<stop stop-color="#5508FC" stop-opacity="0.29"/>
<stop offset="1" stop-color="#5508FC"/>
</linearGradient>
</defs>
</svg>
