<svg width="308" height="165" viewBox="0 0 308 165" fill="none" xmlns="http://www.w3.org/2000/svg">
<path fill-rule="evenodd" clip-rule="evenodd" d="M64.9991 50.5057L65.1635 52.6269L69.4249 50.476C69.6834 50.3455 69.9843 50.5276 70.0151 50.8248C70.5371 55.863 72.9348 57.0622 75.9184 54.1257C76.5385 53.5154 76.9529 52.7021 77.1034 51.8282C77.6656 48.5627 76.4568 47.0704 71.7638 47.9319C71.5072 47.979 71.2719 47.7691 71.281 47.497C71.5122 40.5108 72.1509 38.7542 73.8467 38.7119C75.2203 40.3143 76.598 41.4729 77.7472 43.2393L81.619 49.1844C81.6352 49.2093 81.6593 49.2246 81.6881 49.2259C95.2033 49.8484 134.174 52.9485 136.886 53.0514C168.766 54.2607 197.667 50.8562 208.914 53.5544C212.963 54.5258 218.27 59.8533 222.43 59.8175C256.515 59.5249 279.703 60.4745 301.886 49.0569C302.185 48.9032 302.02 48.4723 301.701 48.5719C296.286 50.2638 291.464 51.8252 287.249 53.0429C277.782 55.7772 267.84 56.0354 258.077 57.0577L253.722 57.5137L231.978 58.2563C223.825 58.267 218.354 56.6925 216.485 55.3282C216.352 55.2307 216.236 55.1116 216.129 54.9839L-nan -nanL216.129 54.9839C213.376 51.7143 209.372 49.8927 205.192 50.0077L169.506 50.9893C169.506 50.9893 142.327 51.7596 137.498 51.1521C132.781 50.5586 84.5533 47.7732 82.335 47.6452C82.2691 47.6414 82.2392 47.6046 82.2092 47.5433C81.1626 45.4002 77.8995 40.9101 75.4194 37.972C74.99 37.4634 74.4111 37.0774 73.7595 37.0912C71.8498 37.1316 70.4528 38.7891 70.1196 42.7537L69.9341 48.3777C69.9283 48.5538 69.8196 48.7091 69.6606 48.7683L64.9991 50.5057ZM71.5474 49.5266C71.4128 49.547 71.3163 49.6788 71.3355 49.8192C71.7099 52.5652 72.2824 54.3793 73.7171 53.7876C74.8777 53.3089 75.6815 52.0503 75.8295 50.7577C75.9905 49.3526 74.8155 49.0307 71.5474 49.5266Z" fill="#8B6503"/>
<path fill-rule="evenodd" clip-rule="evenodd" d="M70.7386 42.7895L70.5536 48.3962C70.539 48.8387 70.2662 49.2289 69.8657 49.3781L65.6555 50.9473L65.7088 51.6342L69.1579 49.8932C69.8199 49.5591 70.5568 50.0314 70.6314 50.7513C70.7573 51.9664 70.993 52.9118 71.3006 53.6032C71.6085 54.2953 71.9705 54.6947 72.3318 54.8906C72.9991 55.2523 74.0511 55.0765 75.4948 53.6556C76.0149 53.1437 76.3659 52.4575 76.4933 51.7173C76.7673 50.1261 76.5484 49.2778 76.0189 48.8421C75.7345 48.6081 75.2904 48.4262 74.5994 48.3632C73.9085 48.3001 73.0115 48.3597 71.8675 48.5697C71.2505 48.683 70.6757 48.1994 70.6611 47.5426C70.6606 47.5214 70.6607 47.5 70.6614 47.4785C70.7768 43.9943 70.9939 41.7226 71.4239 40.3079C71.6413 39.5925 71.933 39.0259 72.3531 38.6366C72.7901 38.2317 73.3013 38.0778 73.8356 38.0645C73.8878 38.0632 73.94 38.0632 73.9924 38.0644L73.9782 38.5887L74.3096 38.2783C74.7738 38.8198 75.2309 39.3015 75.6917 39.787C75.9025 40.0091 76.114 40.232 76.3274 40.4619C76.9967 41.1829 77.6566 41.9448 78.2603 42.8728C78.2603 42.8727 78.2604 42.8729 78.2603 42.8728L81.9846 48.5914C88.8256 48.9147 101.769 49.8332 113.385 50.6875C117.247 50.9716 120.961 51.2483 124.255 51.4939C131.014 51.9976 136.01 52.37 136.912 52.4042C151.466 52.9563 165.4 52.5454 177.33 52.1936C178.446 52.1607 179.544 52.1283 180.624 52.0972C186.931 51.9159 192.607 51.7807 197.411 51.8601C202.207 51.9393 206.177 52.2325 209.056 52.9232C210.15 53.1856 211.298 53.7333 212.445 54.377C213.294 54.8535 214.169 55.3992 215.038 55.9407C215.343 56.1304 215.646 56.3197 215.948 56.5052C217.121 57.228 218.272 57.9025 219.379 58.3945C220.488 58.888 221.51 59.1779 222.429 59.17C225.391 59.1446 228.27 59.1284 231.071 59.1126C258.083 58.9607 277.919 58.8491 296.519 50.8769C293.226 51.9142 290.186 52.8652 287.41 53.667C280.121 55.7726 272.534 56.4235 265.031 57.0672C262.721 57.2654 260.418 57.4629 258.135 57.702L253.76 58.1602L231.985 58.9038L231.975 58.9039C227.862 58.9093 224.413 58.5149 221.747 57.9422C219.102 57.3741 217.167 56.6181 216.128 55.8598C215.939 55.7219 215.787 55.5617 215.662 55.4132C213.03 52.2869 209.202 50.5451 205.205 50.655L169.212 51.6452C169.012 51.6507 168.718 51.6587 168.341 51.6686C167.588 51.6885 166.507 51.7162 165.195 51.7476C162.57 51.8104 159.02 51.8877 155.318 51.946C151.618 52.0044 147.763 52.0438 144.53 52.0305C141.313 52.0174 138.67 51.9523 137.42 51.795C132.729 51.2048 84.5372 48.4211 82.2971 48.2918C82.1465 48.2832 81.9891 48.2294 81.8546 48.1095C81.7404 48.0077 81.681 47.8901 81.6567 47.8403C80.6472 45.7732 77.4279 41.3334 74.9534 38.402C74.9512 38.3995 74.9491 38.3969 74.947 38.3944C74.5868 37.9708 74.1724 37.733 73.7754 37.7385C73.773 37.7386 73.7707 37.7386 73.7683 37.7387C73.0102 37.7547 72.3663 38.0778 71.8509 38.8268C71.3155 39.605 70.9014 40.8728 70.7386 42.7895ZM73.7507 36.4438C72.5991 36.4681 71.5896 36.9939 70.8458 38.075C70.1236 39.1245 69.6734 40.6625 69.5021 42.7009L69.5007 42.7181L69.3196 48.2092L64.3426 50.0641L64.6183 53.6197L69.4316 51.1901C69.5739 52.3662 69.8226 53.361 70.1758 54.1548C70.5574 55.0127 71.0792 55.6743 71.7556 56.0409C73.1635 56.8042 74.8021 56.1114 76.3421 54.5958C77.063 53.8863 77.5397 52.9483 77.7135 51.9391C78.0017 50.2648 77.8973 48.7342 76.7897 47.8228C76.2555 47.3832 75.5527 47.1494 74.7147 47.0729C73.9351 47.0018 73.0035 47.0634 71.9096 47.2499C72.0276 43.9069 72.2437 41.8826 72.6053 40.6931C72.7884 40.0908 72.9888 39.7737 73.1727 39.6033C73.2876 39.4968 73.4205 39.4249 73.5945 39.388C74.0113 39.8616 74.431 40.3038 74.8341 40.7287C75.0395 40.9452 75.2406 41.1571 75.4348 41.3664C76.085 42.0667 76.6885 42.7672 77.2338 43.6055L81.1058 49.5509C81.2207 49.7272 81.4158 49.8618 81.6571 49.8729C88.4048 50.1837 101.517 51.1136 113.291 51.9795C117.113 52.2606 120.795 52.5351 124.073 52.7793C130.877 53.2865 135.935 53.6634 136.859 53.6985C151.456 54.2522 165.428 53.8401 177.354 53.4883C178.471 53.4554 179.57 53.4229 180.65 53.3919C186.96 53.2105 192.61 53.0761 197.384 53.1551C202.167 53.2341 206.027 53.5272 208.772 54.1856C209.703 54.4089 210.736 54.8914 211.853 55.5187C212.675 55.9804 213.516 56.5041 214.377 57.041C214.687 57.2337 214.999 57.4282 215.313 57.622C216.493 58.3481 217.702 59.0595 218.887 59.5867C220.069 60.1124 221.271 60.4751 222.432 60.4651C225.412 60.4395 228.311 60.4236 231.134 60.408C260.538 60.2462 281.773 60.1293 302.157 49.6375C302.61 49.4044 302.76 48.8926 302.601 48.477C302.444 48.0647 302.006 47.802 301.527 47.9516C300.058 48.4105 298.635 48.8593 297.256 49.2939C293.543 50.4646 290.155 51.5326 287.087 52.4189C279.921 54.4886 272.496 55.1262 265.018 55.7684C262.688 55.9684 260.353 56.1689 258.019 56.4133L253.685 56.8672L231.971 57.6087C227.936 57.6134 224.576 57.226 222.004 56.6736C219.408 56.1161 217.673 55.4026 216.842 54.7966C216.764 54.7396 216.685 54.6615 216.595 54.5545C213.722 51.1417 209.543 49.2403 205.18 49.3603L169.494 50.342L169.506 50.9893C169.493 50.342 169.494 50.342 169.494 50.342L169.187 50.3505C168.987 50.356 168.693 50.364 168.317 50.3739C167.565 50.3938 166.485 50.4215 165.174 50.4528C162.551 50.5155 159.004 50.5928 155.307 50.651C151.61 50.7093 147.764 50.7486 144.542 50.7354C141.305 50.7221 138.74 50.6556 137.576 50.5092C132.958 49.9282 87.1099 47.2723 82.6448 47.0144C81.4562 44.7232 78.2875 40.3876 75.8854 37.5421C75.3971 36.9637 74.6725 36.4392 73.7875 36.4433C73.7753 36.4433 73.763 36.4435 73.7507 36.4438ZM69.3146 48.3593L69.525 48.3656L69.4554 48.1586C69.3732 48.1892 69.3176 48.269 69.3146 48.3593ZM71.6951 47.5093L71.9005 47.5155C71.9052 47.3713 71.7848 47.2722 71.6615 47.2939C71.6611 47.294 71.6606 47.294 71.6601 47.2941L71.6951 47.5093ZM69.6918 51.0587L69.607 50.8735L69.3988 50.8983C69.4118 51.0237 69.5469 51.1319 69.6918 51.0587ZM70.7218 49.9143C70.6533 49.4123 70.9944 48.9567 71.4619 48.8857C73.0884 48.639 74.3192 48.5706 75.1407 48.8044C75.5714 48.927 75.9588 49.1515 76.2064 49.5446C76.4526 49.9355 76.4955 50.3901 76.445 50.8309C76.2745 52.3199 75.3504 53.8088 73.9417 54.3898C73.4611 54.588 72.9728 54.6117 72.5234 54.3885C72.0964 54.1764 71.798 53.7866 71.5814 53.3626C71.1553 52.5284 70.9085 51.2836 70.7218 49.9143ZM72.0047 50.1134C72.1815 51.2968 72.3937 52.1951 72.6759 52.7475C72.8286 53.0463 72.9658 53.1708 73.0612 53.2182C73.1344 53.2545 73.2557 53.2831 73.4924 53.1855C74.4051 52.8091 75.0885 51.7808 75.2141 50.6846C75.244 50.4228 75.2004 50.3102 75.1695 50.2611C75.1399 50.2141 75.0595 50.1257 74.8081 50.0542C74.3075 49.9117 73.4261 49.9165 72.0047 50.1134Z" fill="#2E2E2E"/>
<path d="M49.8664 81.1957C52.394 72.4486 52.9441 71.8261 58.5193 72.452L62.0464 55.5197C51.7275 44.9018 45.0623 39.6932 30.1945 37.2529C28.8031 37.0245 27.5485 38.0803 27.3077 39.5123C25.4898 50.322 19.2725 47.7262 7.6135 50.8824C7.32764 50.9598 7.24119 51.3362 7.46907 51.5325C16.963 59.7127 31.2899 57.6707 0.850016 71.3684C0.45489 71.5462 0.601101 72.1935 1.03071 72.1509C14.16 70.8478 17.0065 73.5721 17.5447 90.3632C17.5511 90.5645 17.7714 90.69 17.9344 90.5805C29.7123 82.6598 37.1644 77.5194 49.8664 81.1957Z" fill="#065E14"/>
<path fill-rule="evenodd" clip-rule="evenodd" d="M2.35961 71.387C5.03287 71.1714 7.2824 71.1552 9.16458 71.4519C11.3793 71.8011 13.1251 72.5902 14.4567 74.0302C15.7778 75.4589 16.6296 77.4626 17.1896 80.1172C17.7195 82.6293 17.9988 85.7778 18.1416 89.6744C23.7676 85.8902 28.4931 82.7239 33.3426 80.9354C38.2349 79.1311 43.244 78.7289 49.4447 80.414C49.9986 78.5127 50.4656 76.9986 50.9246 75.8108C51.4284 74.5071 51.9465 73.53 52.6136 72.8511C53.5171 71.9315 54.614 71.64 56.0221 71.6328C54.6436 70.7892 53.3125 70.0195 52.0125 69.3272C48.924 67.6823 46.0171 66.4772 43.0743 65.7536C42.8666 65.8413 42.6646 65.9265 42.468 66.0095C40.1873 66.9717 38.6466 67.6217 37.5101 68.1898C36.2631 68.8132 35.5472 69.3169 34.911 69.9904C34.2652 70.674 33.6856 71.5466 32.7406 72.9693L32.6902 73.0451C31.7249 74.4983 30.414 76.4623 28.3386 79.2343C28.1296 79.5136 27.7401 79.5636 27.4688 79.346C27.1974 79.1284 27.1469 78.7256 27.356 78.4464C29.4105 75.7023 30.7062 73.7609 31.6663 72.3156C31.701 72.2634 31.7352 72.2118 31.7691 72.1608C32.6648 70.8122 33.2998 69.8558 34.021 69.0923C34.7905 68.2777 35.6415 67.6968 36.965 67.0352C37.9339 66.5508 39.1797 66.0121 40.8577 65.3019C38.9284 64.9904 36.9564 64.8851 34.8828 65.0009C33.73 65.0652 32.8038 65.0779 32.0053 65.0888C31.821 65.0913 31.6435 65.0937 31.4716 65.0966C30.5523 65.1124 29.7946 65.143 28.9671 65.275C27.3127 65.5389 25.3202 66.2171 21.2607 68.0975C20.9488 68.242 20.5812 68.0971 20.4396 67.7739C20.2981 67.4507 20.4363 67.0716 20.7483 66.9271C24.8213 65.0405 26.942 64.2997 28.7714 64.008C29.6858 63.8621 30.5128 63.8308 31.4444 63.8148C31.6217 63.8118 31.8029 63.8093 31.9897 63.8067C32.5554 63.799 33.1716 63.7906 33.884 63.7639C33.1084 62.0278 32.7016 60.7404 32.4603 59.7307C32.3205 59.1457 32.238 58.6611 32.1719 58.2516C32.1635 58.1998 32.1555 58.1498 32.1477 58.1013C32.0925 57.7569 32.0498 57.4902 31.9894 57.2439C31.8667 56.7439 31.6742 56.3338 31.0669 55.7395C30.4275 55.1136 29.3592 54.3148 27.4928 53.0603C27.2049 52.8668 27.1221 52.4696 27.3077 52.1732C27.4934 51.8767 27.8773 51.7932 28.1652 51.9867C30.0265 53.2378 31.185 54.0941 31.9174 54.8109C32.682 55.5593 33.0063 56.1794 33.1917 56.9351C33.2661 57.2382 33.3181 57.564 33.3719 57.9006C33.3797 57.9493 33.3875 57.9982 33.3954 58.0473C33.4597 58.4455 33.5361 58.8923 33.6645 59.4296C33.905 60.4359 34.3342 61.785 35.2233 63.7004C37.9891 63.5831 40.5924 63.8464 43.1564 64.4583C45.9377 65.1222 48.663 66.194 51.489 67.6236C50.8529 63.7051 50.266 61.6849 48.9225 60.0218C48.1776 59.0997 47.1771 58.2611 45.7377 57.2804C44.4406 56.3966 42.8195 55.4185 40.7468 54.168C40.5144 54.0278 40.2762 53.8841 40.0322 53.7368C39.7358 53.5577 39.6346 53.165 39.8062 52.8596C39.9779 52.5542 40.3573 52.4518 40.6538 52.6308C40.8992 52.779 41.1392 52.9238 41.3739 53.0654C43.4362 54.3096 45.0891 55.3068 46.4166 56.2112C47.8983 57.2207 49.0145 58.1406 49.873 59.2034C51.5624 61.2947 52.166 63.8382 52.8578 68.3392C54.5478 69.2504 56.2836 70.2844 58.0968 71.4315L61.3685 55.7246C56.3247 50.5477 52.1823 46.717 47.5134 43.8714C42.7811 40.9871 37.4763 39.0966 30.1005 37.886C29.0868 37.7196 28.1098 38.49 27.9188 39.6253C27.4545 42.3864 26.6977 44.366 25.5893 45.8061C24.4727 47.2568 23.0439 48.102 21.347 48.6767C19.7182 49.2282 17.8008 49.5427 15.6449 49.8962L15.4542 49.9275C13.3315 50.2759 10.9437 50.6743 8.25999 51.3734C10.4248 53.1501 12.8126 54.4213 14.87 55.5167L15.0024 55.5872C16.0962 56.1696 17.1106 56.7136 17.9113 57.2564C18.6951 57.7877 19.3818 58.3862 19.7006 59.1221C20.0541 59.9381 19.902 60.778 19.3295 61.6045C18.7804 62.3973 17.8118 63.2366 16.3998 64.1796C13.7231 65.9671 9.24879 68.2576 2.35961 71.387ZM0.0274972 71.9865C-0.067167 71.5725 0.072862 71.0176 0.599813 70.7805C8.21164 67.3552 12.9807 64.9328 15.7225 63.1017C17.0996 62.1821 17.9086 61.4478 18.3195 60.8546C18.7069 60.2952 18.6971 59.9367 18.5688 59.6406C18.4059 59.2644 17.9869 58.837 17.2348 58.3272C16.4996 57.8289 15.5478 57.3166 14.439 56.7261C14.3836 56.6966 14.328 56.667 14.272 56.6372C12.1079 55.4854 9.44682 54.0689 7.07341 52.0239C6.43975 51.478 6.70321 50.4654 7.45329 50.2623C10.4003 49.4645 13.0016 49.0308 15.2532 48.6613L15.3787 48.6407C17.5904 48.2779 19.4216 47.9774 20.955 47.4582C22.497 46.936 23.6921 46.2061 24.6169 45.0047C25.5499 43.7925 26.252 42.043 26.6966 39.3992C26.9873 37.6705 28.5194 36.3295 30.2886 36.6199C37.7806 37.8495 43.2423 39.7834 48.1392 42.768C53.0253 45.746 57.3175 49.7517 62.4828 55.0666L62.7242 55.315L59.0088 73.1514L58.4557 73.0893C55.6134 72.7702 54.3976 72.8396 53.4865 73.7669C53.0032 74.2588 52.5614 75.0382 52.077 76.2918C51.5946 77.5399 51.0937 79.1922 50.4608 81.3821L50.2874 81.9822L49.7022 81.8129C43.473 80.01 38.5658 80.3726 33.7652 82.143C29.0135 83.8955 24.357 87.0274 18.5969 90.9016C18.4899 90.9735 18.3824 91.0458 18.2746 91.1183C17.6853 91.5146 16.9464 91.0555 16.9248 90.381C16.7906 86.1934 16.513 82.9217 15.9777 80.3838C15.4423 77.8459 14.661 76.1016 13.5621 74.9133C12.4736 73.7362 11.0124 73.0391 8.98397 72.7192C6.94098 72.3971 4.36381 72.4644 1.09332 72.789C0.501586 72.8477 0.123249 72.4053 0.0274972 71.9865Z" fill="#2E2E2E"/>
<path d="M27.3195 78.3443C26.8874 79.3885 28.5081 79.0841 29.2003 78.2048C36.6049 68.7988 40.3291 65.6856 45.7114 69.3704C38.3727 76.8639 33.6765 80.1663 27.0997 82.3891C24.8964 83.1337 22.7883 81.4017 22.2772 79.0497C21.2776 74.4497 18.785 72.4078 12.3662 72.3574C8.69286 71.0478 6.237 70.6163 1.20685 71.8303C8.87988 68.5983 12.8774 66.7133 19.3236 61.9372C20.0191 60.6348 19.9838 59.1065 19.3849 58.2419C15.0603 54.685 11.8346 54.0833 8.02623 50.8619C18.1594 49.9913 25.1819 48.5617 26.4037 44.1263L28.2696 38.6154C42.4134 43.8288 43.5517 47.3136 42.7312 53.9876L40.1497 52.3103L39.5056 53.3859L46.2175 57.7468C38.0556 54.011 31.8833 50.1873 31.2498 53.9982L27.6356 51.65L26.9915 52.7256L27.0268 52.7494C29.2139 54.2282 30.4537 55.0665 31.8325 56.6179C32.4065 59.6681 32.8341 61.2932 33.9028 63.9393C29.007 63.6483 26.1889 63.8156 20.4891 67.1766C20.1461 67.9622 20.3421 68.1527 21.5217 67.8475C29.2715 65.4343 32.5184 65.3361 32.1034 71.7345C30.5037 74.4028 29.3634 76.0763 27.4983 78.068C27.4191 78.1526 27.3601 78.2462 27.3195 78.3443Z" fill="white" fill-opacity="0.17"/>
<path d="M293.536 55.9164C291.337 56.587 291.066 56.5427 289.448 55.0638L285.612 56.7016C287.085 60.8779 288.304 63.3142 292.579 67.4335C292.9 67.7429 293.483 67.8272 293.847 67.66C296.091 66.6286 297.604 68.5224 301.62 70.9025C301.713 70.9579 301.829 70.9183 301.794 70.8417C300.185 67.2765 295.477 64.0421 307.045 69.5521C307.174 69.6138 307.293 69.5135 307.182 69.4342C302.865 66.3299 302.425 65.2215 305.015 62.5696C305.041 62.5433 305.018 62.499 304.967 62.4812C300.016 60.7176 296.871 59.6343 293.536 55.9164Z" fill="#065E14"/>
<path fill-rule="evenodd" clip-rule="evenodd" d="M306.626 69.2051C304.736 67.82 303.634 66.8083 303.314 65.8304C302.976 64.795 303.526 63.8368 304.768 62.55C304.743 62.5412 304.718 62.5323 304.693 62.5234C302.322 61.679 300.342 60.9741 298.552 60.035C296.742 59.0851 295.132 57.8994 293.489 56.0948C293.015 56.2378 292.625 56.3463 292.29 56.4088C291.917 56.4784 291.588 56.4956 291.263 56.4287C290.934 56.3611 290.641 56.2142 290.336 56.0001C290.263 55.9483 290.187 55.8919 290.109 55.8309C290.389 56.283 290.666 56.7142 290.946 57.1279C291.642 58.1545 292.356 59.0712 293.164 59.9258C293.251 59.969 293.336 60.0109 293.419 60.0515C294.278 60.4752 294.86 60.7626 295.305 60.9616C295.796 61.1812 296.1 61.2845 296.403 61.3422C296.71 61.4006 297.026 61.4149 297.551 61.4386L297.576 61.4398C298.11 61.464 298.835 61.4982 299.926 61.6026C300.036 61.6131 300.134 61.6831 300.146 61.7591C300.157 61.835 300.078 61.888 299.968 61.8775C298.891 61.7744 298.177 61.7407 297.647 61.7167C297.627 61.7158 297.608 61.7149 297.588 61.714C297.095 61.6918 296.74 61.6757 296.389 61.6091C296.018 61.5384 295.662 61.4132 295.152 61.1847C294.789 61.0225 294.339 60.8039 293.74 60.5092C294.295 61.0466 294.898 61.563 295.57 62.0711C295.934 62.3467 296.22 62.5735 296.468 62.7703C296.525 62.8159 296.581 62.8598 296.634 62.9024C296.922 63.1294 297.165 63.3168 297.448 63.5069C298.012 63.8863 298.745 64.2845 300.302 65.0142C300.402 65.0613 300.447 65.1485 300.402 65.2089C300.357 65.2693 300.239 65.2801 300.139 65.2329C298.576 64.5003 297.809 64.0867 297.208 63.6825C296.908 63.4808 296.653 63.2835 296.364 63.0551C296.309 63.0117 296.253 62.9672 296.195 62.9213C296.023 62.7849 295.835 62.6357 295.616 62.4664C295.573 62.8893 295.492 63.1682 295.406 63.3711C295.354 63.493 295.3 63.5859 295.254 63.6633C295.248 63.6731 295.243 63.6826 295.237 63.6917C295.198 63.7566 295.169 63.8063 295.148 63.8574C295.104 63.9622 295.095 64.0773 295.191 64.3302C295.29 64.5897 295.494 64.9806 295.866 65.6307C295.909 65.7064 295.862 65.7776 295.761 65.7899C295.66 65.8022 295.542 65.7509 295.499 65.6752C295.128 65.0266 294.913 64.6181 294.806 64.3371C294.697 64.0496 294.696 63.8832 294.761 63.7249C294.788 63.661 294.825 63.5991 294.863 63.5357C294.868 63.5266 294.874 63.5174 294.88 63.5082C294.924 63.4333 294.973 63.3483 295.02 63.2369C295.111 63.0228 295.2 62.7051 295.235 62.1754C294.346 61.497 293.575 60.8033 292.875 60.0665C292.119 59.2702 291.447 58.4246 290.8 57.4954C290.374 58.2163 290.229 58.6618 290.375 59.2478C290.534 59.8869 291.038 60.6965 291.972 62.1954C292.017 62.2676 292.063 62.3415 292.11 62.417C292.156 62.4921 292.113 62.5651 292.014 62.58C291.914 62.5949 291.795 62.5461 291.748 62.4709C291.693 62.3816 291.638 62.2945 291.585 62.2094C290.677 60.7516 290.151 59.906 289.982 59.2286C289.803 58.5086 290.027 57.9823 290.551 57.1319C290.158 56.5486 289.771 55.9318 289.376 55.2737L285.836 56.7857C286.56 58.8318 287.224 60.4516 288.225 62.062C289.239 63.6932 290.602 65.3203 292.731 67.3718C292.965 67.5968 293.414 67.6753 293.711 67.5386C294.295 67.2703 294.853 67.1828 295.434 67.2607C296.009 67.3378 296.574 67.573 297.168 67.9016C297.74 68.218 298.362 68.634 299.067 69.1059C299.093 69.1233 299.119 69.1409 299.146 69.1585C299.838 69.6215 300.617 70.1409 301.528 70.6884C301.146 69.8902 300.62 69.1137 300.17 68.4503C300.157 68.4313 300.144 68.4123 300.131 68.3934C299.889 68.0355 299.669 67.7088 299.514 67.4358C299.363 67.1692 299.258 66.9264 299.279 66.7498C299.29 66.6562 299.338 66.5726 299.444 66.5183C299.548 66.4649 299.688 66.4503 299.845 66.4605C300.152 66.4803 300.589 66.5982 301.172 66.8072C302.28 67.2042 304.016 67.9691 306.626 69.2051ZM307.37 69.6482C307.296 69.7113 307.134 69.743 306.961 69.6606C304.068 68.2826 302.207 67.4581 301.063 67.0482C300.486 66.8413 300.12 66.7507 299.905 66.7368C299.802 66.7302 299.752 66.7424 299.727 66.7554C299.703 66.7675 299.683 66.7897 299.677 66.8376C299.664 66.9437 299.731 67.1255 299.882 67.3924C300.029 67.6529 300.242 67.9686 300.486 68.3292C300.5 68.3501 300.515 68.3711 300.529 68.3923C301.007 69.0971 301.587 69.9535 301.984 70.8312C302.08 71.0447 301.756 71.1425 301.513 70.9986C300.502 70.3994 299.649 69.8311 298.908 69.3349L298.841 69.2905C298.125 68.8113 297.52 68.4069 296.97 68.1023C296.403 67.7888 295.918 67.5952 295.453 67.533C294.994 67.4714 294.521 67.534 293.983 67.7814C293.552 67.9792 292.836 67.8889 292.427 67.4951C290.281 65.4274 288.897 63.7767 287.864 62.1158C286.832 60.4564 286.156 58.7924 285.419 56.7023L285.389 56.6176L289.464 54.8775L289.596 54.9982C290.001 55.3687 290.312 55.6391 290.584 55.8304C290.854 56.0196 291.07 56.1191 291.286 56.1636C291.506 56.2089 291.758 56.2038 292.105 56.1393C292.452 56.0746 292.871 55.9549 293.422 55.7869L293.584 55.7374L293.699 55.8654C295.35 57.7067 296.948 58.8883 298.739 59.8282C300.49 60.747 302.432 61.4387 304.823 62.29C304.889 62.3133 304.955 62.3368 305.021 62.3605C305.201 62.4244 305.276 62.5757 305.189 62.665C303.893 63.9916 303.396 64.8965 303.703 65.8341C304.011 66.7774 305.145 67.7949 307.309 69.351C307.461 69.4605 307.445 69.5843 307.37 69.6482Z" fill="#2E2E2E"/>
<path d="M295.783 69.2563C291.684 66.1001 291.395 65.5409 291.733 60.5646L283.788 55.6892C278.664 64.0262 276.16 69.5537 274.904 82.9897C274.81 83.9975 275.435 85.1751 276.195 85.6098C281.005 88.3605 279.808 93.7025 281.166 104.345C281.198 104.591 281.416 104.747 281.499 104.581C285.404 96.8131 284.569 83.7505 290.766 112.557C290.835 112.879 291.16 112.956 291.146 112.645C290.617 100.484 291.907 98.1773 299.906 99.3905C299.986 99.4026 300.029 99.2978 299.992 99.1802C296.332 87.6713 293.945 80.4113 295.783 69.2563Z" fill="#065E14"/>
<path fill-rule="evenodd" clip-rule="evenodd" d="M290.792 111.325C290.604 105.961 290.84 102.554 292.075 100.642C293.38 98.621 295.75 98.3463 299.61 98.9082C299.592 98.8526 299.574 98.7971 299.557 98.7416C297.803 93.2287 296.338 88.6261 295.528 84.0593C294.709 79.4405 294.56 74.8742 295.42 69.4141C294.536 68.7296 293.827 68.1565 293.269 67.621C292.65 67.0266 292.18 66.4447 291.857 65.7571C291.531 65.0604 291.386 64.322 291.34 63.4697C291.328 63.2539 291.323 63.0279 291.322 62.7902C290.926 63.9225 290.562 65.0225 290.233 66.104C289.423 68.7682 288.824 71.3174 288.458 73.9569C288.502 74.1761 288.545 74.3886 288.586 74.5948C289.021 76.75 289.316 78.2118 289.576 79.2997C289.862 80.5007 290.096 81.2014 290.406 81.8393C290.719 82.4843 291.121 83.088 291.786 84.088L291.819 84.1366C292.496 85.1549 293.412 86.5375 294.703 88.6922C294.831 88.9063 294.844 89.1827 294.733 89.3094C294.621 89.4361 294.427 89.3652 294.298 89.1511C293.024 87.0235 292.122 85.6612 291.449 84.6503C291.424 84.6129 291.4 84.5758 291.375 84.5392C290.749 83.5979 290.299 82.9214 289.942 82.1867C289.562 81.4059 289.297 80.5824 288.999 79.3321C288.786 78.4385 288.55 77.304 288.243 75.7864C288.074 77.5397 288.006 79.3531 288.045 81.283C288.066 82.3259 288.065 83.1586 288.064 83.8811C288.063 84.0484 288.063 84.2097 288.063 84.3664C288.063 85.2016 288.072 85.9023 288.129 86.6792C288.242 88.2297 288.55 90.1175 289.404 93.9725C289.459 94.2214 289.373 94.425 289.212 94.4273C289.051 94.4296 288.876 94.2298 288.821 93.981C287.965 90.1108 287.637 88.1397 287.516 86.4863C287.456 85.6612 287.448 84.9236 287.447 84.0828C287.447 83.9232 287.448 83.7599 287.448 83.5914C287.449 83.0872 287.45 82.5362 287.443 81.8993C286.66 82.3922 286.075 82.6201 285.612 82.7341C285.335 82.8023 285.105 82.8286 284.911 82.8476C284.887 82.85 284.863 82.8522 284.84 82.8544C284.677 82.87 284.553 82.8819 284.437 82.9118C284.2 82.9729 283.993 83.1112 283.692 83.6281C283.384 84.1587 282.993 85.0604 282.388 86.6218C282.317 86.804 282.135 86.8144 281.98 86.645C281.825 86.4755 281.757 86.1904 281.828 86.0082C282.432 84.4503 282.838 83.5046 283.173 82.9292C283.515 82.3401 283.797 82.114 284.154 82.0218C284.298 81.9846 284.453 81.9699 284.612 81.9549C284.635 81.9527 284.658 81.9505 284.681 81.9483C284.869 81.9299 285.079 81.9055 285.332 81.8432C285.819 81.7234 286.479 81.4602 287.426 80.813C287.384 78.2608 287.527 75.9052 287.838 73.623C288.176 71.1542 288.711 68.7749 289.422 66.329C287.615 66.5131 286.66 66.8442 285.858 67.9034C284.986 69.0561 284.287 71.0747 282.993 74.8142C282.93 74.9942 282.867 75.1781 282.802 75.3661C282.736 75.5541 282.556 75.5745 282.399 75.4116C282.242 75.2487 282.168 74.9642 282.233 74.7761C282.31 74.5531 282.385 74.3355 282.459 74.1231C283.717 70.4871 284.447 68.3766 285.373 67.1537C286.357 65.8539 287.554 65.5602 289.704 65.3828C290.167 63.8732 290.695 62.3304 291.284 60.719L283.94 56.213C281.433 60.3023 279.572 63.7083 278.18 67.7225C276.769 71.7881 275.835 76.4923 275.209 83.1834C275.141 83.9164 275.6 84.8405 276.219 85.1948C277.468 85.9088 278.371 86.8174 279.023 87.9916C279.671 89.1568 280.033 90.5166 280.275 92.0584C280.507 93.5436 280.637 95.2561 280.783 97.1987C280.788 97.2687 280.794 97.339 280.799 97.4096C280.943 99.3164 281.108 101.463 281.405 103.892C282.252 102.11 282.866 100.088 283.391 98.3617C283.405 98.3134 283.42 98.2654 283.435 98.2175C283.717 97.2876 283.977 96.441 284.234 95.7874C284.485 95.1492 284.756 94.6267 285.086 94.4279C285.261 94.3225 285.466 94.2989 285.698 94.42C285.926 94.539 286.138 94.7758 286.332 95.0798C286.709 95.6709 287.097 96.6368 287.527 97.9967C288.342 100.581 289.38 104.827 290.792 111.325ZM291.037 113.283C290.833 113.235 290.566 112.986 290.474 112.557C288.924 105.353 287.821 100.801 286.979 98.1347C286.554 96.7896 286.216 95.9906 285.949 95.5724C285.82 95.3717 285.73 95.2928 285.671 95.262C285.616 95.2333 285.549 95.2257 285.46 95.2793C285.263 95.3984 285.044 95.7652 284.793 96.4037C284.548 97.0267 284.297 97.8439 284.012 98.7808C283.996 98.834 283.979 98.8876 283.963 98.9415C283.406 100.774 282.729 103.001 281.767 104.915C281.534 105.378 280.945 104.923 280.864 104.285C280.522 101.605 280.341 99.2605 280.187 97.2197L280.174 97.044C280.025 95.0703 279.899 93.4063 279.675 91.9775C279.445 90.5096 279.12 89.353 278.596 88.4103C278.078 87.4767 277.327 86.6861 276.17 86.0247C275.27 85.5096 274.479 84.0785 274.599 82.7961C275.229 76.0511 276.174 71.2736 277.611 67.1322C279.047 62.9944 280.967 59.5065 283.532 55.3342L283.635 55.1654L292.068 60.3394L292.04 60.7449C291.955 61.9917 291.913 62.9271 291.954 63.6867C291.995 64.4375 292.115 64.9691 292.331 65.4288C292.551 65.8976 292.9 66.3583 293.477 66.912C294.054 67.4659 294.823 68.079 295.85 68.8697L296.147 69.099L296.084 69.4841C295.174 75.0075 295.312 79.5429 296.123 84.1118C296.915 88.5794 298.352 93.0947 300.12 98.6529C300.168 98.8043 300.217 98.9566 300.265 99.1096C300.399 99.5302 300.242 99.8796 299.973 99.8388C295.97 99.2316 293.763 99.5332 292.581 101.362C291.394 103.201 291.188 106.664 291.454 112.76C291.472 113.189 291.243 113.331 291.037 113.283Z" fill="#2E2E2E"/>
<path d="M285.156 67.3092C284.526 64.0528 284.636 63.7087 287.091 62.195L285.3 56.3059C278.833 56.417 275.02 56.9722 268.131 60.9502C267.693 61.2032 267.496 61.8227 267.665 62.2813C269.001 65.921 265.888 67.0656 261.606 71.5165C261.524 71.6024 261.556 71.745 261.658 71.7352C267.239 71.1931 272.896 66.1945 262.63 79.531C262.533 79.6564 262.642 79.8259 262.759 79.7282C268.186 75.1871 269.895 75.0492 273.431 79.7741C273.461 79.814 273.523 79.8029 273.553 79.7509C276.982 73.8761 279.102 70.1303 285.156 67.3092Z" fill="#065E14"/>
<path fill-rule="evenodd" clip-rule="evenodd" d="M263.131 79.1749C265.588 77.1557 267.309 76.0692 268.836 76.0578C270.437 76.0459 271.77 77.2149 273.494 79.4985C273.517 79.4583 273.54 79.4182 273.564 79.3781C275.203 76.5688 276.57 74.2272 278.25 72.2455C279.956 70.2327 281.98 68.5963 284.935 67.1924C284.798 66.4729 284.699 65.8913 284.662 65.4066C284.62 64.8778 284.649 64.4381 284.798 64.0424C284.948 63.6417 285.208 63.319 285.573 63.0063C285.708 62.8909 285.859 62.7748 286.028 62.6551C285.246 62.842 284.501 63.0361 283.786 63.2444C282.149 63.7211 280.673 64.2713 279.272 64.977C279.192 65.0775 279.115 65.1749 279.039 65.2693C278.271 66.2339 277.75 66.8893 277.382 67.3986C276.975 67.9613 276.769 68.3284 276.631 68.717C276.493 69.1076 276.419 69.5308 276.298 70.2216L276.291 70.2594C276.167 70.9661 275.998 71.9233 275.664 73.3423C275.635 73.4624 275.532 73.55 275.433 73.538C275.334 73.526 275.276 73.4189 275.305 73.2988C275.635 71.8948 275.803 70.9494 275.926 70.247C275.93 70.2219 275.934 70.1971 275.939 70.1725C276.053 69.5162 276.135 69.0503 276.289 68.6143C276.453 68.1529 276.693 67.7357 277.115 67.1528C277.437 66.7074 277.872 66.155 278.47 65.4034C277.529 65.9297 276.615 66.5367 275.703 67.2511C275.236 67.617 274.853 67.8995 274.521 68.1448C274.444 68.2016 274.37 68.2565 274.298 68.3099C273.915 68.5944 273.597 68.8382 273.268 69.134C272.611 69.7246 271.9 70.5338 270.563 72.3008C270.489 72.3987 270.371 72.421 270.299 72.3505C270.228 72.28 270.23 72.1434 270.304 72.0454C271.645 70.2725 272.381 69.4298 273.076 68.805C273.422 68.4932 273.755 68.2385 274.141 67.9523C274.214 67.898 274.289 67.8426 274.366 67.7854C274.614 67.6025 274.886 67.4012 275.201 67.1605C274.544 66.903 274.127 66.6614 273.833 66.4483C273.662 66.3248 273.535 66.2123 273.428 66.1157C273.414 66.1036 273.401 66.0918 273.389 66.0803C273.299 65.9992 273.229 65.9357 273.156 65.8834C273.002 65.7743 272.828 65.7103 272.435 65.7264C272.034 65.7429 271.42 65.8424 270.397 66.0517C270.294 66.0728 270.211 65.9935 270.211 65.8747C270.211 65.7558 270.295 65.6424 270.398 65.6213C271.419 65.4124 272.057 65.3072 272.489 65.2896C272.929 65.2715 273.171 65.3439 273.388 65.4987C273.477 65.5618 273.561 65.6382 273.649 65.7178C273.662 65.7293 273.674 65.7408 273.687 65.7524C273.791 65.8462 273.909 65.9506 274.068 66.065C274.373 66.286 274.833 66.55 275.619 66.8361C276.771 65.9423 277.926 65.2147 279.134 64.6027C280.456 63.9325 281.839 63.4018 283.347 62.9433C282.314 62.0084 281.667 61.5952 280.75 61.5271C279.775 61.4547 278.492 61.7707 276.124 62.3535C276.009 62.3819 275.891 62.411 275.77 62.4407C275.667 62.466 275.58 62.3909 275.577 62.2729C275.573 62.1549 275.654 62.0386 275.757 62.0133C275.897 61.9788 276.034 61.9451 276.168 61.9122C278.477 61.3433 279.812 61.0145 280.839 61.0908C281.929 61.1718 282.666 61.7066 283.843 62.7964C284.785 62.5243 285.777 62.2765 286.834 62.0375L285.158 56.5264C281.98 56.5839 279.454 56.7539 276.88 57.3916C274.279 58.0362 271.621 59.161 268.189 61.1432C267.868 61.3284 267.703 61.7994 267.838 62.1666C268.182 63.1015 268.25 63.905 268.063 64.6589C267.876 65.4105 267.446 66.0743 266.859 66.7383C266.291 67.3815 265.556 68.0461 264.718 68.8046C264.693 68.8269 264.669 68.8492 264.644 68.8716C263.817 69.62 262.883 70.4679 261.883 71.4952C263.163 71.3459 264.44 70.9739 265.524 70.6578C265.548 70.651 265.571 70.6442 265.594 70.6374C266.17 70.4698 266.694 70.3185 267.126 70.2318C267.55 70.1469 267.924 70.1148 268.176 70.2213C268.309 70.2774 268.418 70.3757 268.475 70.5323C268.531 70.686 268.529 70.8714 268.487 71.0748C268.405 71.4725 268.157 72.0091 267.742 72.7116C266.947 74.0569 265.478 76.112 263.131 79.1749ZM262.458 79.864C262.39 79.7582 262.374 79.5669 262.501 79.4014C265.069 76.0663 266.63 73.8906 267.446 72.5091C267.858 71.8132 268.063 71.3464 268.124 71.0465C268.154 70.9012 268.146 70.8142 268.127 70.761C268.108 70.7106 268.071 70.6672 267.997 70.636C267.835 70.5676 267.548 70.5775 267.124 70.6625C266.709 70.7456 266.201 70.8921 265.622 71.0609C265.595 71.0686 265.569 71.0763 265.542 71.0841C264.405 71.4156 263.021 71.8188 261.64 71.953C261.357 71.9805 261.283 71.587 261.497 71.3648C262.574 70.2451 263.577 69.3338 264.45 68.5437L264.51 68.4901C265.361 67.72 266.077 67.0722 266.625 66.4512C267.185 65.8176 267.55 65.2347 267.705 64.6089C267.86 63.9855 267.816 63.2809 267.491 62.396C267.289 61.846 267.519 61.078 268.074 60.7572C271.53 58.7614 274.223 57.6196 276.867 56.9643C279.509 56.3096 282.094 56.143 285.33 56.0873L285.442 56.0854L287.325 62.2788L287.154 62.3848C286.539 62.7639 286.086 63.0608 285.756 63.3432C285.43 63.6225 285.241 63.8732 285.136 64.1547C285.029 64.4414 284.995 64.7929 285.034 65.2918C285.072 65.7906 285.181 66.4107 285.339 67.2263L285.378 67.4265L285.197 67.5106C282.196 68.9091 280.18 70.5309 278.491 72.5244C276.842 74.4687 275.498 76.7718 273.847 79.6009C273.799 79.6838 273.75 79.7671 273.701 79.8509C273.593 80.0369 273.382 80.0688 273.281 79.9338C271.512 77.5688 270.24 76.4841 268.772 76.495C267.297 76.5059 265.569 77.6218 262.848 79.8984C262.685 80.0348 262.529 79.972 262.458 79.864Z" fill="#2E2E2E"/>
<path d="M275.553 72.8025C275.692 73.1257 276.158 72.5944 276.297 72.1545C277.8 67.4146 278.88 65.4473 282.078 64.714C280.062 69.3083 278.481 71.6504 275.482 74.5853C274.912 75.1431 274.202 75.2483 273.798 74.9091C272.278 73.6311 270.732 73.6769 267.427 75.915C265.485 76.7264 264.276 77.3833 262.219 79.2699C265.08 76.0363 266.531 74.2997 268.523 71.0517C268.58 70.4983 268.258 70.1153 267.811 70.0797C265.121 70.5153 263.526 71.3692 261.139 71.7298C265.599 68.3356 268.524 65.7702 268.195 64.2443L267.945 62.2396C275.457 59.1595 276.675 59.702 277.636 61.6796L276.12 62.0547L276.04 62.5335L279.983 61.5584C275.502 63.1483 271.914 64.0931 272.388 65.2739L270.265 65.799L270.185 66.2778L270.206 66.2729C271.503 65.9701 272.237 65.7984 273.178 65.7671C274.052 66.3741 274.573 66.6594 275.591 67.0074C273.294 68.4638 272.039 69.3885 270.105 72.0382C270.105 72.348 270.233 72.3358 270.711 71.8881C273.772 68.8416 275.237 67.8006 276.329 69.5803C276.143 70.6982 275.967 71.4619 275.569 72.4616C275.515 72.5968 275.515 72.7151 275.553 72.8025Z" fill="white" fill-opacity="0.17"/>
<path d="M96.5401 142.08C99.5047 151.013 94.9556 160.758 86.3796 163.846C77.8035 166.934 68.448 162.195 65.4835 153.262C62.519 144.33 67.068 134.585 75.6441 131.497C84.2202 128.409 93.5756 133.147 96.5401 142.08Z" fill="#48027F"/>
<path fill-rule="evenodd" clip-rule="evenodd" d="M85.581 161.439C92.7681 158.852 96.7025 150.616 94.1547 142.939C91.6069 135.262 83.6298 131.316 76.4427 133.903C69.2555 136.491 65.3211 144.726 67.8689 152.404C70.4167 160.081 78.3939 164.027 85.581 161.439ZM86.3796 163.846C94.9556 160.758 99.5047 151.013 96.5401 142.08C93.5756 133.147 84.2202 128.409 75.6441 131.497C67.068 134.585 62.519 144.33 65.4835 153.262C68.448 162.195 77.8035 166.934 86.3796 163.846Z" fill="#2E2E2E"/>
<path d="M79.4716 129.45C82.4361 138.383 77.8871 148.127 69.3111 151.215C60.735 154.303 51.3795 149.565 48.415 140.632C45.4505 131.699 49.9995 121.954 58.5756 118.867C67.1516 115.779 76.5071 120.517 79.4716 129.45Z" fill="#48027F"/>
<path fill-rule="evenodd" clip-rule="evenodd" d="M68.5125 148.809C75.6996 146.221 79.634 137.986 77.0862 130.309C74.5384 122.632 66.5613 118.685 59.3741 121.273C52.187 123.861 48.2526 132.096 50.8004 139.773C53.3482 147.45 61.3253 151.397 68.5125 148.809ZM69.3111 151.215C77.8871 148.127 82.4361 138.383 79.4716 129.45C76.5071 120.517 67.1516 115.779 58.5756 118.867C49.9995 121.954 45.4505 131.699 48.415 140.632C51.3795 149.565 60.735 154.303 69.3111 151.215Z" fill="#2E2E2E"/>
<path d="M74.0753 128.71C75.5026 133.011 73.3124 137.703 69.1832 139.19C65.0539 140.677 60.5495 138.395 59.1221 134.094C57.6947 129.793 59.885 125.101 64.0142 123.615C68.1434 122.128 72.6479 124.409 74.0753 128.71Z" fill="#520091"/>
<path d="M68.4812 127.373C68.9204 128.696 68.2464 130.14 66.9759 130.597C65.7054 131.054 64.3194 130.353 63.8802 129.029C63.441 127.706 64.1149 126.262 65.3855 125.805C66.656 125.347 68.042 126.049 68.4812 127.373Z" fill="#6F6F6F"/>
<path d="M58.6813 107.439C67.2573 104.351 71.8063 94.606 68.8418 85.6732C68.6368 85.0555 68.4013 84.458 68.1376 83.8816C69.1682 76.149 67.108 80.7868 53.1547 74.147C51.4257 74.1646 49.67 74.4691 47.9458 75.0899C39.3698 78.1777 34.8208 87.9224 37.7853 96.8552C40.7498 105.788 50.1053 110.526 58.6813 107.439Z" fill="#48027F"/>
<path d="M53.1547 74.147C67.108 80.7868 69.1682 76.149 68.1376 83.8816C68.4013 84.458 68.6368 85.0555 68.8418 85.6732C67.9044 74.9059 67.3026 61.7174 68.0819 49.2204C68.3647 44.6863 68.8292 40.2433 69.5255 36.0399C70.7097 28.8905 72.5644 22.4345 75.3351 17.4034C66.9556 25.4078 54.3701 16.4837 54.6265 13.6603C50.4383 28.2321 51.9889 57.5158 53.1547 74.147Z" fill="#30793C"/>
<path d="M54.6265 13.6603C54.3701 16.4837 66.9556 25.4078 75.3351 17.4034C69.0057 8.81068 61.395 8.34578 54.6265 13.6603Z" fill="#30793C" fill-opacity="0.71"/>
<path fill-rule="evenodd" clip-rule="evenodd" d="M65.8617 79.8227C66.0046 81.934 66.1649 83.982 66.336 85.9481L66.3621 86.248L66.4564 86.532C69.0042 94.2092 65.0698 102.445 57.8827 105.032C50.6956 107.62 42.7185 103.674 40.1707 95.9963C37.6229 88.3192 41.5573 80.0839 48.7444 77.4962C50.1991 76.9724 51.6763 76.7166 53.1301 76.7018L55.679 76.6758C59.6294 78.3106 62.4592 78.9865 64.3336 79.4342C64.9416 79.5794 65.4491 79.7006 65.8617 79.8227ZM68.2743 78.1103C68.3928 79.9967 68.5261 81.8384 68.6699 83.6221C68.6786 83.7307 68.6874 83.8392 68.6963 83.9474C68.7437 84.5291 68.7923 85.1045 68.8418 85.6732C71.8063 94.606 67.2573 104.351 58.6813 107.439C50.1053 110.526 40.7498 105.788 37.7853 96.8552C34.8208 87.9224 39.3698 78.1777 47.9458 75.0899C48.8399 74.768 49.7424 74.5311 50.6452 74.3752C51.4836 74.2304 52.3222 74.1554 53.1547 74.147C53.0971 73.3261 53.0387 72.4744 52.98 71.5953C51.904 55.4733 50.7604 30.0939 54.0888 15.743C54.2565 15.0199 54.4356 14.3248 54.6265 13.6603C61.395 8.34578 69.0057 8.81068 75.3351 17.4034C74.8772 18.2348 74.4444 19.1051 74.0354 20.0111C71.9697 24.5872 70.514 30.072 69.5255 36.0399C68.8292 40.2433 68.3647 44.6863 68.0819 49.2204C67.4771 58.9189 67.7041 69.0338 68.2743 78.1103ZM70.7157 21.4749C69.0713 25.7599 67.8861 30.5875 67.045 35.6647C66.3314 39.9732 65.8585 44.5066 65.5714 49.1092C64.9849 58.5149 65.1704 68.2812 65.6908 77.1224C65.4323 77.058 65.1581 76.9923 64.8666 76.9223C62.8127 76.4297 59.9051 75.7322 55.6614 73.8804C55.0803 65.5857 54.4081 54.1938 54.3984 43.0785C54.3901 33.6569 54.8612 24.6407 56.1885 17.9081C57.5313 18.9867 59.2948 20.0341 61.2808 20.7897C64.0754 21.8529 67.4368 22.3747 70.7157 21.4749ZM72.344 17.7293C72.2664 17.887 72.1896 18.0458 72.1135 18.2055C68.9122 19.9049 65.3207 19.5807 62.2039 18.3948C60.2541 17.653 58.568 16.5964 57.4046 15.5846C57.2172 15.4216 57.0466 15.2626 56.8927 15.1091C59.6148 13.1866 62.2665 12.4783 64.7332 12.8448C67.1415 13.2027 69.7524 14.6413 72.344 17.7293Z" fill="#2E2E2E"/>
<path d="M63.4456 84.9332C64.8729 89.2342 62.6826 93.9261 58.5534 95.4128C54.4242 96.8996 49.9197 94.6182 48.4924 90.3172C47.065 86.0162 49.2553 81.3243 53.3845 79.8375C57.5137 78.3508 62.0182 80.6322 63.4456 84.9332Z" fill="#520091"/>
<path d="M100.867 139.893C94.3043 145.903 84.3074 145.234 78.5378 138.398C72.7682 131.563 73.4109 121.15 79.9731 115.141C86.5354 109.131 96.5323 109.8 102.302 116.636C108.071 123.471 107.429 133.884 100.867 139.893Z" fill="#48027F"/>
<path fill-rule="evenodd" clip-rule="evenodd" d="M80.3545 136.735C85.2957 142.588 93.7854 143.099 99.3054 138.044C104.825 132.989 105.426 124.153 100.485 118.299C95.544 112.445 87.0543 111.935 81.5342 116.99C76.0142 122.045 75.4133 130.881 80.3545 136.735ZM78.5378 138.398C84.3074 145.234 94.3043 145.903 100.867 139.893C107.429 133.884 108.071 123.471 102.302 116.636C96.5323 109.8 86.5354 109.131 79.9731 115.141C73.4109 121.15 72.7682 131.563 78.5378 138.398Z" fill="#2E2E2E"/>
<path d="M99.4248 136.337C96.2652 139.23 91.4519 138.908 88.6739 135.617C85.896 132.326 86.2054 127.312 89.365 124.419C92.5246 121.525 97.3379 121.847 100.116 125.138C102.894 128.429 102.584 133.443 99.4248 136.337Z" fill="#520091"/>
<path d="M48.475 99.3326C51.4395 108.265 46.8905 118.01 38.3144 121.098C29.7383 124.186 20.3829 119.448 17.4183 110.515C14.4538 101.582 19.0029 91.8372 27.5789 88.7493C36.155 85.6615 45.5105 90.3997 48.475 99.3326Z" fill="#48027F"/>
<path fill-rule="evenodd" clip-rule="evenodd" d="M37.5158 118.692C44.703 116.104 48.6374 107.869 46.0896 100.191C43.5418 92.5143 35.5646 88.5678 28.3775 91.1556C21.1904 93.7433 17.256 101.979 19.8038 109.656C22.3516 117.333 30.3287 121.28 37.5158 118.692ZM38.3144 121.098C46.8905 118.01 51.4395 108.265 48.475 99.3326C45.5105 90.3997 36.155 85.6615 27.5789 88.7493C19.0029 91.8372 14.4538 101.582 17.4183 110.515C20.3829 119.448 29.7383 124.186 38.3144 121.098Z" fill="#2E2E2E"/>
<path d="M43.0786 98.593C44.506 102.894 42.3157 107.586 38.1865 109.073C34.0573 110.559 29.5528 108.278 28.1255 103.977C26.6981 99.676 28.8884 94.9841 33.0176 93.4973C37.1468 92.0106 41.6513 94.292 43.0786 98.593Z" fill="#520091"/>
<path d="M37.4845 97.2542C37.9237 98.5776 37.2498 100.021 35.9793 100.479C34.7087 100.936 33.3227 100.234 32.8835 98.9109C32.4444 97.5875 33.1183 96.1438 34.3888 95.6863C35.6593 95.2289 37.0453 95.9309 37.4845 97.2542Z" fill="#6F6F6F"/>
<path d="M108.057 103.06C111.241 112.654 106.355 123.121 97.1438 126.437C87.9325 129.754 77.884 124.665 74.6999 115.07C71.5158 105.475 76.4018 95.0089 85.6131 91.6923C94.8244 88.3757 104.873 93.465 108.057 103.06Z" fill="#48027F"/>
<path fill-rule="evenodd" clip-rule="evenodd" d="M96.2861 123.853C104.006 121.073 108.231 112.228 105.495 103.982C102.758 95.7362 94.1903 91.4974 86.4708 94.2768C78.7513 97.0563 74.5255 105.902 77.262 114.147C79.9985 122.393 88.5666 126.632 96.2861 123.853ZM97.1438 126.437C106.355 123.121 111.241 112.654 108.057 103.06C104.873 93.465 94.8244 88.3757 85.6131 91.6923C76.4018 95.0089 71.5158 105.475 74.6999 115.07C77.884 124.665 87.9325 129.754 97.1438 126.437Z" fill="#2E2E2E"/>
<path d="M102.261 102.266C103.794 106.885 101.442 111.925 97.0066 113.522C92.5715 115.119 87.7333 112.668 86.2002 108.049C84.6672 103.429 87.0197 98.3896 91.4548 96.7928C95.8898 95.1959 100.728 97.6463 102.261 102.266Z" fill="#520091"/>
<path d="M118.197 79.291C121.162 88.2239 116.613 97.9686 108.037 101.056C99.4607 104.144 90.1052 99.406 87.1407 90.4731C84.1762 81.5403 88.7252 71.7956 97.3013 68.7077C105.877 65.6199 115.233 70.3582 118.197 79.291Z" fill="#48027F"/>
<path fill-rule="evenodd" clip-rule="evenodd" d="M107.238 98.6502C114.425 96.0624 118.36 87.8271 115.812 80.1499C113.264 72.4727 105.287 68.5262 98.0999 71.114C90.9127 73.7018 86.9783 81.9371 89.5261 89.6143C92.0739 97.2914 100.051 101.238 107.238 98.6502ZM108.037 101.056C116.613 97.9686 121.162 88.2239 118.197 79.291C115.233 70.3582 105.877 65.6199 97.3013 68.7077C88.7252 71.7956 84.1762 81.5403 87.1407 90.4731C90.1052 99.406 99.4607 104.144 108.037 101.056Z" fill="#2E2E2E"/>
<path d="M109.706 76.9829C111.133 81.2839 108.943 85.9758 104.814 87.4625C100.684 88.9493 96.18 86.6679 94.7526 82.3669C93.3253 78.0659 95.5155 73.374 99.6447 71.8872C103.774 70.4005 108.278 72.6819 109.706 76.9829Z" fill="#520091"/>
<path d="M103.713 74.4469C104.152 75.7702 103.478 77.2139 102.208 77.6714C100.937 78.1288 99.5511 77.4269 99.112 76.1035C98.6728 74.7801 99.3467 73.3364 100.617 72.879C101.888 72.4215 103.274 73.1235 103.713 74.4469Z" fill="#6F6F6F"/>
<path d="M92.2915 76.5909C95.5855 86.5163 90.531 97.3438 81.002 100.775C71.4731 104.206 61.0781 98.9409 57.7842 89.0155C54.4903 79.0901 59.5448 68.2627 69.0737 64.8317C78.6027 61.4008 88.9976 66.6656 92.2915 76.5909Z" fill="#48027F"/>
<path fill-rule="evenodd" clip-rule="evenodd" d="M80.1147 98.1011C88.1004 95.2258 92.472 86.0755 89.6411 77.5453C86.8102 69.0151 77.9467 64.6301 69.961 67.5054C61.9753 70.3807 57.6037 79.531 60.4346 88.0612C63.2655 96.5914 72.129 100.976 80.1147 98.1011ZM81.002 100.775C90.531 97.3438 95.5855 86.5163 92.2915 76.5909C88.9976 66.6656 78.6027 61.4008 69.0737 64.8317C59.5448 68.2627 54.4903 79.0901 57.7842 89.0155C61.0781 98.9409 71.4731 104.206 81.002 100.775Z" fill="#2E2E2E"/>
<path d="M84.0267 72.9356C85.6127 77.7145 83.179 82.9277 78.591 84.5796C74.003 86.2316 68.998 83.6967 67.4121 78.9178C65.8261 74.1389 68.2597 68.9257 72.8478 67.2738C77.4358 65.6218 82.4408 68.1567 84.0267 72.9356Z" fill="#520091"/>
<path d="M77.057 69.7802C77.545 71.2506 76.7962 72.8547 75.3845 73.363C73.9728 73.8713 72.4328 73.0913 71.9448 71.6209C71.4568 70.1505 72.2057 68.5464 73.6173 68.0381C75.029 67.5298 76.569 68.3098 77.057 69.7802Z" fill="#6F6F6F"/>
<path d="M62.7574 114.007C65.7219 122.939 61.1728 132.684 52.5968 135.772C44.0207 138.86 34.6652 134.121 31.7007 125.189C28.7362 116.256 33.2852 106.511 41.8613 103.423C50.4374 100.335 59.7928 105.074 62.7574 114.007Z" fill="#48027F"/>
<path fill-rule="evenodd" clip-rule="evenodd" d="M51.7982 133.366C58.9853 130.778 62.9198 122.543 60.3719 114.865C57.8241 107.188 49.847 103.242 42.6599 105.829C35.4727 108.417 31.5383 116.653 34.0861 124.33C36.6339 132.007 44.6111 135.953 51.7982 133.366ZM52.5968 135.772C61.1728 132.684 65.7219 122.939 62.7574 114.007C59.7928 105.074 50.4374 100.335 41.8613 103.423C33.2852 106.511 28.7362 116.256 31.7007 125.189C34.6652 134.121 44.0207 138.86 52.5968 135.772Z" fill="#2E2E2E"/>
<path d="M57.361 113.267C58.7884 117.568 56.5981 122.26 52.4689 123.747C48.3397 125.233 43.8352 122.952 42.4078 118.651C40.9805 114.35 43.1707 109.658 47.2999 108.171C51.4292 106.684 55.9337 108.966 57.361 113.267Z" fill="#520091"/>
<path d="M52.9173 111.514C53.3565 112.837 52.6825 114.281 51.412 114.739C50.1415 115.196 48.7555 114.494 48.3163 113.171C47.8771 111.847 48.551 110.404 49.8216 109.946C51.0921 109.489 52.4781 110.191 52.9173 111.514Z" fill="#6F6F6F"/>
<path d="M85.3216 100.515C88.2862 109.448 83.7371 119.192 75.1611 122.28C66.585 125.368 57.2295 120.63 54.265 111.697C51.3005 102.764 55.8495 93.0194 64.4256 89.9316C73.0016 86.8437 82.3571 91.582 85.3216 100.515Z" fill="#48027F"/>
<path fill-rule="evenodd" clip-rule="evenodd" d="M74.3625 119.874C81.5496 117.286 85.484 109.051 82.9362 101.374C80.3884 93.6966 72.4113 89.7501 65.2241 92.3379C58.037 94.9256 54.1026 103.161 56.6504 110.838C59.1982 118.515 67.1754 122.462 74.3625 119.874ZM75.1611 122.28C83.7371 119.192 88.2862 109.448 85.3216 100.515C82.3571 91.582 73.0016 86.8437 64.4256 89.9316C55.8495 93.0194 51.3005 102.764 54.265 111.697C57.2295 120.63 66.585 125.368 75.1611 122.28Z" fill="#2E2E2E"/>
<path d="M76.83 98.2089C78.2574 102.51 76.0671 107.202 71.9379 108.689C67.8087 110.175 63.3042 107.894 61.8768 103.593C60.4495 99.2918 62.6397 94.6 66.769 93.1132C70.8982 91.6265 75.4027 93.9079 76.83 98.2089Z" fill="#520091"/>
<path d="M70.8372 95.6708C71.2763 96.9942 70.6024 98.4378 69.3319 98.8953C68.0614 99.3528 66.6754 98.6508 66.2362 97.3274C65.797 96.004 66.4709 94.5603 67.7414 94.1029C69.012 93.6454 70.398 94.3474 70.8372 95.6708Z" fill="#6F6F6F"/>
<path d="M223.477 109.581V108.922L224.991 108.33C225.737 108.023 226.242 107.628 226.505 107.145C226.812 106.618 226.966 105.916 226.966 105.038V70.6741C226.966 69.7963 226.834 69.116 226.571 68.6333C226.351 68.1066 225.825 67.6897 224.991 67.3825L223.477 66.79V66.1317H255.01L255.405 76.2697H254.747L251.916 70.0816C251.521 69.2916 251.104 68.6552 250.665 68.1725C250.226 67.6897 249.568 67.4483 248.69 67.4483H236.841V86.4736H243.885C244.762 86.4736 245.421 86.2542 245.859 85.8153C246.342 85.3326 246.759 84.6962 247.11 83.9062L248.427 81.2729H249.085V93.1227H248.427L247.11 90.3577C246.715 89.5677 246.298 88.9533 245.859 88.5144C245.421 88.0317 244.762 87.7903 243.885 87.7903H236.841V108.264H250.139C251.016 108.264 251.697 108.044 252.179 107.606C252.662 107.123 253.057 106.465 253.364 105.631L256.063 99.4425H256.722L256.327 109.581H223.477Z" fill="#E9CCFF"/>
<path d="M181.868 109.581V108.922L184.04 108.264C184.83 108.044 185.4 107.628 185.752 107.013C186.103 106.355 186.278 105.587 186.278 104.709V73.044C185.795 71.9907 185.4 71.2007 185.093 70.6741C184.83 70.1474 184.523 69.7085 184.172 69.3574C183.821 68.9624 183.338 68.4797 182.723 67.9091L181.604 66.79V66.1317H193.256L215.113 95.9534V71.1349C215.113 70.2571 214.959 69.4671 214.652 68.7649C214.388 68.0627 213.818 67.6019 212.94 67.3825L210.768 66.79V66.1317H220.182V66.79L218.404 67.3825C217.614 67.6458 217.131 68.1066 216.956 68.7649C216.78 69.4233 216.692 70.1913 216.692 71.069V109.778H213.006L187.858 75.2164V104.709C187.858 105.587 187.99 106.333 188.253 106.947C188.517 107.562 189.065 108.001 189.899 108.264L191.874 108.922V109.581H181.868Z" fill="#E9CCFF"/>
<path d="M161.112 109.581V108.922L162.429 108.396C163.306 108.088 163.877 107.671 164.14 107.145C164.448 106.618 164.601 105.916 164.601 105.038V70.6741C164.601 69.7963 164.469 69.0941 164.206 68.5674C163.943 68.0408 163.35 67.6239 162.429 67.3166L161.112 66.79V66.1317H178.031V66.79L176.714 67.3166C175.836 67.6239 175.244 68.0408 174.937 68.5674C174.673 69.0941 174.542 69.7963 174.542 70.6741V105.038C174.542 105.916 174.673 106.618 174.937 107.145C175.244 107.628 175.836 108.044 176.714 108.396L178.031 108.922V109.581H161.112Z" fill="#E9CCFF"/>
<path d="M114.477 109.778L102.825 70.6082C102.518 69.5988 102.188 68.8747 101.837 68.4358C101.486 67.953 100.872 67.5141 99.994 67.1191L99.2041 66.79V66.1317H116.649V66.79L115.267 67.3166C114.258 67.7116 113.577 68.1944 113.226 68.7649C112.875 69.3355 112.853 70.1255 113.16 71.1349L120.336 98.5208L128.104 75.5456L126.59 70.8716C126.283 69.9499 125.998 69.2477 125.734 68.7649C125.471 68.2822 125.032 67.8872 124.418 67.58L122.969 66.79V66.1317H139.493V66.79L137.452 67.58C136.574 67.8872 136.07 68.348 135.938 68.9624C135.85 69.533 135.96 70.2791 136.267 71.2007L144.628 99.1792L152.528 71.7274C152.835 70.6741 152.945 69.7524 152.857 68.9624C152.769 68.1725 152.22 67.6019 151.211 67.2508L149.829 66.79V66.1317H158.979V66.79L157.268 67.4483C156.39 67.7555 155.775 68.2383 155.424 68.8966C155.073 69.5549 154.766 70.3668 154.503 71.3324L143.575 109.778H139.032L129.157 78.8372L119.019 109.778H114.477Z" fill="#E9CCFF"/>
<path d="M222.72 43.5806V42.9222L224.103 42.3956C225.024 42.0445 225.595 41.6275 225.814 41.1448C226.078 40.6181 226.209 39.9159 226.209 39.0382V4.67405C226.209 3.7963 226.078 3.09409 225.814 2.56744C225.551 2.04078 224.98 1.62385 224.103 1.31664L222.72 0.789985V0.131668H239.507V0.789985L238.322 1.31664C237.488 1.62385 236.918 2.06273 236.611 2.63327C236.303 3.15992 236.15 3.86213 236.15 4.73988V42.2639H246.288C247.912 42.2639 249.097 41.8689 249.843 41.079C250.633 40.289 251.379 39.1479 252.081 37.6557L254.649 32.1258H255.307L254.714 43.5806H222.72Z" fill="#E9CCFF"/>
<path d="M179.141 43.5806V42.9222L180.786 42.3298C181.664 41.9786 182.344 41.5617 182.827 41.0789C183.31 40.5523 183.705 39.8281 184.012 38.9065L197.574 0H203.169L216.533 39.1698C216.884 40.1354 217.279 40.8815 217.718 41.4081C218.157 41.8909 218.837 42.3078 219.759 42.6589L220.549 42.9222V43.5806H203.827V42.9222L204.815 42.5931C205.737 42.242 206.285 41.7592 206.461 41.1448C206.68 40.4865 206.658 39.7184 206.395 38.8407L203.301 29.3609H188.686L185.526 38.6432C185.219 39.6087 185.109 40.3767 185.197 40.9473C185.329 41.5178 185.855 41.9786 186.777 42.3298L188.225 42.9222V43.5806H179.141ZM189.147 28.0443H202.906L196.257 7.57064L189.147 28.0443Z" fill="#E9CCFF"/>
<path d="M143.448 43.5806V42.9222L144.962 42.3298C145.708 42.0225 146.212 41.6275 146.476 41.1448C146.783 40.6181 146.937 39.9159 146.937 39.0382V4.67405C146.937 3.7963 146.805 3.11604 146.542 2.63327C146.322 2.10662 145.796 1.68968 144.962 1.38247L143.448 0.789985V0.131668H174.981L175.376 10.2697H174.718L171.887 4.08157C171.492 3.29159 171.075 2.65522 170.636 2.17245C170.197 1.68968 169.539 1.4483 168.661 1.4483H156.811V20.4736H163.855C164.733 20.4736 165.391 20.2542 165.83 19.8153C166.313 19.3326 166.73 18.6962 167.081 17.9062L168.398 15.2729H169.056V27.1226H168.398L167.081 24.3577C166.686 23.5677 166.269 22.9533 165.83 22.5144C165.391 22.0317 164.733 21.7903 163.855 21.7903H156.811V42.2639H170.109C170.987 42.2639 171.667 42.0445 172.15 41.6056C172.633 41.1228 173.028 40.4645 173.335 39.6307L176.034 33.4425H176.693L176.298 43.5806H143.448Z" fill="#E9CCFF"/>
<path d="M102.011 43.5806V42.9222L103.394 42.4614C104.271 42.1542 104.842 41.7592 105.105 41.2764C105.369 40.7498 105.5 40.0256 105.5 39.104V4.67405C105.5 3.7963 105.369 3.11604 105.105 2.63327C104.886 2.10662 104.359 1.68968 103.525 1.38247L102.011 0.789985V0.131668H120.839C126.018 0.131668 129.99 1.11914 132.755 3.09409C135.519 5.02515 136.902 7.72425 136.902 11.1914C136.902 13.1224 136.178 15.0535 134.729 16.9846C133.281 18.9156 130.999 20.4078 127.883 21.4611L137.034 39.6307C137.429 40.3768 137.867 40.9912 138.35 41.4739C138.877 41.9128 139.557 42.3078 140.391 42.6589L141.247 42.9881V43.5806H129.463L119.72 22.8436H115.243V39.104C115.243 39.9379 115.375 40.6181 115.638 41.1448C115.902 41.6714 116.45 42.0664 117.284 42.3298L118.864 42.9222V43.5806H102.011ZM115.243 21.527H118.403C121.563 21.527 123.845 20.6931 125.25 19.0253C126.654 17.3137 127.356 14.7902 127.356 11.4547C127.356 8.07536 126.698 5.57375 125.381 3.9499C124.065 2.28217 121.848 1.4483 118.732 1.4483H115.243V21.527Z" fill="#E9CCFF"/>
</svg>
