<svg width="513" height="329" viewBox="0 0 513 329" fill="none" xmlns="http://www.w3.org/2000/svg">
<path d="M439.06 248.9C441.44 253.207 444.103 256.947 447.05 260.12C450.11 263.293 453.397 265.73 456.91 267.43C460.537 269.13 464.333 269.98 468.3 269.98C472.493 269.98 475.95 268.96 478.67 266.92C481.39 264.767 482.75 261.877 482.75 258.25C482.75 255.19 481.957 252.753 480.37 250.94C478.783 249.013 476.233 247.2 472.72 245.5C469.207 243.8 464.56 241.873 458.78 239.72C455.947 238.7 452.66 237.283 448.92 235.47C445.293 233.657 441.837 231.333 438.55 228.5C435.263 225.553 432.543 222.04 430.39 217.96C428.237 213.767 427.16 208.723 427.16 202.83C427.16 195.803 428.973 189.74 432.6 184.64C436.34 179.54 441.327 175.687 447.56 173.08C453.907 170.36 460.933 169 468.64 169C476.573 169 483.43 170.303 489.21 172.91C495.103 175.517 499.977 178.803 503.83 182.77C507.683 186.737 510.63 190.76 512.67 194.84L490.74 207.08C489.04 204.247 487.057 201.81 484.79 199.77C482.637 197.617 480.2 195.973 477.48 194.84C474.873 193.593 472.04 192.97 468.98 192.97C464.9 192.97 461.783 193.877 459.63 195.69C457.477 197.39 456.4 199.543 456.4 202.15C456.4 204.87 457.42 207.25 459.46 209.29C461.613 211.33 464.617 213.2 468.47 214.9C472.437 216.6 477.197 218.413 482.75 220.34C486.943 221.927 490.853 223.797 494.48 225.95C498.107 227.99 501.28 230.483 504 233.43C506.833 236.377 509.043 239.777 510.63 243.63C512.217 247.483 513.01 251.903 513.01 256.89C513.01 262.897 511.763 268.28 509.27 273.04C506.89 277.687 503.603 281.597 499.41 284.77C495.33 287.943 490.627 290.323 485.3 291.91C480.087 293.61 474.703 294.46 469.15 294.46C461.443 294.46 454.247 293.1 447.56 290.38C440.987 287.547 435.263 283.75 430.39 278.99C425.517 274.23 421.72 269.017 419 263.35L439.06 248.9Z" fill="#363B47"/>
<path d="M309.461 228.22C309.461 235.247 310.821 241.48 313.541 246.92C316.374 252.247 320.284 256.44 325.271 259.5C330.371 262.56 336.321 264.09 343.121 264.09C349.808 264.09 355.644 262.56 360.631 259.5C365.731 256.44 369.641 252.247 372.361 246.92C375.194 241.48 376.611 235.247 376.611 228.22C376.611 221.193 375.251 215.017 372.531 209.69C369.811 204.25 365.958 200 360.971 196.94C355.984 193.88 350.034 192.35 343.121 192.35C336.321 192.35 330.371 193.88 325.271 196.94C320.284 200 316.374 204.25 313.541 209.69C310.821 215.017 309.461 221.193 309.461 228.22ZM279.031 228.22C279.031 219.04 280.618 210.653 283.791 203.06C287.078 195.467 291.611 188.893 297.391 183.34C303.171 177.787 309.971 173.537 317.791 170.59C325.611 167.53 334.054 166 343.121 166C352.301 166 360.744 167.53 368.451 170.59C376.271 173.537 383.071 177.787 388.851 183.34C394.631 188.893 399.108 195.467 402.281 203.06C405.454 210.653 407.041 219.04 407.041 228.22C407.041 237.4 405.454 245.843 402.281 253.55C399.221 261.257 394.801 267.943 389.021 273.61C383.354 279.277 376.611 283.697 368.791 286.87C360.971 289.93 352.414 291.46 343.121 291.46C333.714 291.46 325.101 289.93 317.281 286.87C309.461 283.697 302.661 279.277 296.881 273.61C291.214 267.943 286.794 261.257 283.621 253.55C280.561 245.843 279.031 237.4 279.031 228.22Z" fill="#363B47"/>
<path d="M187.105 194.39V168.72H281.285V194.39H248.475V287.72H219.745V194.39H187.105Z" fill="#363B47"/>
<path d="M115.613 287.72V264.09H175.623V287.72H115.613ZM115.613 192.35V168.72H175.623V192.35H115.613ZM115.613 236.72V213.6H172.223V236.72H115.613ZM96.5733 168.72H124.113V287.72H96.5733V168.72Z" fill="#363B47"/>
<path d="M15.64 298.6C17.34 300.073 19.4367 301.32 21.93 302.34C24.4233 303.473 26.9167 304.04 29.41 304.04C32.0167 304.04 34.51 303.02 36.89 300.98C39.27 298.94 40.46 295.427 40.46 290.44V168.72H71.4V296.9C71.4 302.567 70.38 307.383 68.34 311.35C66.3 315.43 63.4667 318.66 59.84 321.04C56.2133 323.533 52.02 325.347 47.26 326.48C42.5 327.727 37.5133 328.35 32.3 328.35C27.88 328.35 23.63 327.84 19.55 326.82C15.47 325.8 11.7867 324.553 8.5 323.08C5.21333 321.72 2.38 320.247 0 318.66L15.64 298.6Z" fill="#363B47"/>
<path d="M280.076 62.22C280.076 69.2467 281.436 75.48 284.156 80.92C286.99 86.2467 290.9 90.44 295.886 93.5C300.986 96.56 306.936 98.09 313.736 98.09C320.423 98.09 326.26 96.56 331.246 93.5C336.346 90.44 340.256 86.2467 342.976 80.92C345.81 75.48 347.226 69.2467 347.226 62.22C347.226 55.1933 345.866 49.0167 343.146 43.69C340.426 38.25 336.573 34 331.586 30.94C326.6 27.88 320.65 26.35 313.736 26.35C306.936 26.35 300.986 27.88 295.886 30.94C290.9 34 286.99 38.25 284.156 43.69C281.436 49.0167 280.076 55.1933 280.076 62.22ZM249.646 62.22C249.646 53.04 251.233 44.6533 254.406 37.06C257.693 29.4667 262.226 22.8933 268.006 17.34C273.786 11.7867 280.586 7.53666 288.406 4.59C296.226 1.53 304.67 0 313.736 0C322.916 0 331.36 1.53 339.066 4.59C346.886 7.53666 353.686 11.7867 359.466 17.34C365.246 22.8933 369.723 29.4667 372.896 37.06C376.07 44.6533 377.656 53.04 377.656 62.22C377.656 71.4 376.07 79.8433 372.896 87.55C369.836 95.2567 365.416 101.943 359.636 107.61C353.97 113.277 347.226 117.697 339.406 120.87C331.586 123.93 323.03 125.46 313.736 125.46C304.33 125.46 295.716 123.93 287.896 120.87C280.076 117.697 273.276 113.277 267.496 107.61C261.83 101.943 257.41 95.2567 254.236 87.55C251.176 79.8433 249.646 71.4 249.646 62.22Z" fill="#363B47"/>
<path d="M176.128 67.83H205.878L243.108 121.72H209.448L176.128 67.83ZM146.378 2.71997H175.108V121.72H146.378V2.71997ZM164.398 27.03V2.71997H189.728C199.928 2.71997 208.428 4.36331 215.228 7.64998C222.028 10.9366 227.185 15.5266 230.698 21.42C234.211 27.2 235.968 33.9433 235.968 41.65C235.968 49.2433 234.211 55.9866 230.698 61.88C227.185 67.66 222.028 72.1933 215.228 75.48C208.428 78.7666 199.928 80.41 189.728 80.41H164.398V58.14H187.688C191.541 58.14 194.828 57.5733 197.548 56.44C200.381 55.1933 202.535 53.4366 204.008 51.17C205.481 48.79 206.218 45.9566 206.218 42.67C206.218 39.3833 205.481 36.6066 204.008 34.34C202.535 31.96 200.381 30.1466 197.548 28.9C194.828 27.6533 191.541 27.03 187.688 27.03H164.398Z" fill="#363B47"/>
<path d="M40.46 2.71997H69.19V121.72H40.46V2.71997ZM58.48 26.35V2.71997H81.77C91.8567 2.71997 100.3 4.30664 107.1 7.47997C114.013 10.54 119.227 14.96 122.74 20.74C126.253 26.52 128.01 33.49 128.01 41.65C128.01 49.5833 126.253 56.4966 122.74 62.39C119.227 68.17 114.013 72.6466 107.1 75.82C100.3 78.88 91.8567 80.41 81.77 80.41H58.48V56.78H81.77C87.55 56.78 92.0834 55.4766 95.37 52.87C98.6567 50.2633 100.3 46.5233 100.3 41.65C100.3 36.6633 98.6567 32.8666 95.37 30.26C92.0834 27.6533 87.55 26.35 81.77 26.35H58.48Z" fill="#363B47"/>
</svg>
