<svg width="40" height="41" viewBox="0 0 40 41" fill="none" xmlns="http://www.w3.org/2000/svg">
<path d="M18.6761 36.6669C17.2769 35.5439 4.28302 22.9079 4.13778 22.7697C3.5639 22.1958 3.20257 21.6007 3.10338 21.0551C3.00065 20.4883 3.17423 19.9924 3.63475 19.5319C4.06339 19.1032 4.58768 18.8765 5.15093 18.8765C5.83818 18.8765 6.54313 19.2024 7.13118 19.794L13.0223 25.4549C13.1251 25.5541 13.2597 25.6037 13.3908 25.6037C13.5289 25.6037 13.6635 25.5505 13.7663 25.4478C13.9717 25.2423 13.9717 24.9094 13.7698 24.7039L4.3645 14.9904C3.4222 14.0481 2.97939 12.6063 4.09882 11.4869C4.52746 11.0582 5.05174 10.8315 5.615 10.8315C6.30224 10.8315 7.0072 11.1574 7.59525 11.749L17.2166 21.1295C17.3194 21.2287 17.454 21.2819 17.5886 21.2819C17.7232 21.2819 17.8614 21.2287 17.9641 21.126C18.1696 20.9205 18.1731 20.5875 17.9676 20.3785L6.41206 8.53245C5.87714 7.99754 5.55478 7.35635 5.4981 6.73287C5.44496 6.09876 5.66814 5.51071 6.14637 5.03248C6.57501 4.60383 7.0993 4.37712 7.66255 4.37712C8.3498 4.37712 9.05475 4.70302 9.6428 5.29108L21.4287 16.7829C21.5314 16.8821 21.666 16.9352 21.8006 16.9352C21.9352 16.9352 22.0734 16.8821 22.1761 16.7794C22.3816 16.5739 22.3851 16.2409 22.1797 16.0319L13.621 7.2359C13.0826 6.69744 12.7602 6.0598 12.7071 5.43632C12.6539 4.80221 12.8771 4.21416 13.3553 3.73593C13.784 3.30729 14.3083 3.08057 14.8715 3.08057C15.5588 3.08057 16.2637 3.40648 16.8518 3.99807C19.9904 7.08003 28.1842 15.1392 28.4605 15.4368C29.5126 16.163 29.7251 15.0648 29.7783 14.3528C29.8385 13.5238 28.8891 10.6296 29.4417 8.02588C30.3699 4.56487 33.0445 5.13166 33.1047 5.16C34.5713 5.84725 34.2914 6.87457 33.7707 8.93984L33.7175 9.34722C33.172 12.0466 36.9199 20.0455 37.1962 20.6442C38.6664 23.8608 40.3597 30.3825 34.7519 35.9902C28.6057 42.1365 20.9965 38.9872 18.6761 36.6669Z" fill="url(#paint0_radial_14_648)"/>
<path d="M26.5616 40.1165C22.7924 40.1165 19.5864 38.3134 18.3217 37.0629C17.1846 36.1348 10.0075 29.2057 4.16244 23.5341C3.92509 23.3039 3.78693 23.1728 3.77276 23.1551C3.11032 22.4927 2.69939 21.8019 2.58249 21.15C2.44787 20.4097 2.67813 19.7401 3.2591 19.1556C3.79048 18.6243 4.44229 18.3444 5.15079 18.3444C5.98327 18.3444 6.8193 18.727 7.50654 19.4178L13.3906 25.0716L3.98177 15.3581C2.89777 14.2741 2.35223 12.478 3.72317 11.1106C4.25454 10.5793 4.90636 10.2994 5.61485 10.2994C6.44734 10.2994 7.28336 10.682 7.97061 11.3728L17.5849 20.7462L6.03287 8.90368C5.41648 8.28729 5.03743 7.53274 4.97012 6.78173C4.90282 5.98113 5.17913 5.24784 5.77072 4.65624C6.3021 4.12487 6.95391 3.84501 7.66241 3.84501C8.49135 3.84501 9.32738 4.22406 10.0182 4.91484L21.8005 16.4031L13.2418 7.60713C12.6219 6.9872 12.2428 6.23265 12.1791 5.48164C12.1118 4.68458 12.3881 3.95129 12.9797 3.35969C13.5111 2.82832 14.1629 2.54846 14.8714 2.54846C15.7038 2.54846 16.5399 2.93105 17.2271 3.62183L19.7812 6.12637C24.3333 10.5899 28.138 14.3272 28.5454 14.7452C28.7437 14.9046 29.0023 14.9649 29.1122 14.9117C29.183 14.8763 29.2609 14.7134 29.2468 14.3697C29.2255 13.7675 29.1405 13.02 29.0519 12.2301C28.8748 10.643 28.6906 8.99933 28.9209 7.91533C29.4239 6.03427 30.4122 5.23721 31.1491 4.89359C32.1622 4.42598 33.1435 4.58893 33.3313 4.6775C35.1733 5.54186 34.8085 6.98719 34.3054 8.99224L34.2948 9.04184L34.2381 9.45631C33.8697 11.2701 35.7614 16.2827 37.6531 20.3672L37.6814 20.4238C38.9461 23.187 41.2239 30.2755 35.1308 36.3686C32.3287 39.1636 29.2964 40.1165 26.5616 40.1165ZM5.15079 19.4071C4.73278 19.4071 4.33602 19.5807 4.01011 19.9066C3.67357 20.2432 3.55667 20.5691 3.62752 20.9588C3.70546 21.3874 4.02074 21.8975 4.51314 22.3935C4.51668 22.397 4.65838 22.5352 4.90281 22.769C13.1993 30.821 18.2084 35.6069 19.009 36.2517L19.0515 36.2906C21.0069 38.2461 28.2726 41.7177 34.3763 35.614C39.9982 29.9921 37.8833 23.4279 36.7108 20.8631L36.686 20.81C35.4674 18.1814 32.6971 11.805 33.1896 9.26147L33.271 8.7301C33.8166 6.5621 33.8485 6.10866 32.9239 5.66231C32.6511 5.61271 30.6956 5.37536 29.9482 8.1633C29.7604 9.05246 29.9411 10.6785 30.1005 12.1132C30.1926 12.9244 30.2776 13.6931 30.2989 14.3343C30.3343 15.3439 29.8561 15.73 29.5656 15.8717C28.974 16.1587 28.269 15.9143 27.8298 15.5458L27.7837 15.5033C27.5676 15.2695 22.4275 10.2286 19.0267 6.89155L16.469 4.37993C15.5976 3.50493 14.4746 3.35969 13.7201 4.11424C13.3516 4.48266 13.1851 4.91484 13.2241 5.39308C13.2666 5.89257 13.5358 6.41331 13.9857 6.86321L22.5621 15.6592C22.9659 16.0701 22.9659 16.7432 22.555 17.1541C22.1618 17.5473 21.4675 17.5544 21.0636 17.1648L9.2707 5.66939C8.39925 4.79794 7.27274 4.6527 6.52173 5.40725C6.15331 5.77567 5.98682 6.20785 6.02578 6.68608C6.07183 7.18557 6.34106 7.70986 6.78742 8.15267L18.3465 20.0058C18.7539 20.4168 18.7504 21.0898 18.3395 21.5008C17.9462 21.894 17.2519 21.9011 16.8481 21.5114L7.22314 12.1273C6.35169 11.2488 5.22518 11.1071 4.47417 11.8617C3.55667 12.7792 4.04553 13.9163 4.73986 14.6142L14.1522 24.3347C14.5561 24.7457 14.5525 25.4152 14.1416 25.8226C13.7449 26.2193 13.0576 26.2229 12.6538 25.8368L6.76262 20.1759C6.26667 19.6764 5.69633 19.4071 5.15079 19.4071Z" fill="#EDA600"/>
<path d="M27.6137 15.093C25.6689 19.0641 25.9204 24.6223 28.8394 29.0823C29.1688 29.6845 29.7321 29.3905 29.4451 28.7705C25.9204 21.2286 29.6152 15.7944 29.6152 15.7944L27.6137 15.093Z" fill="#EDA600"/>
<path d="M19.9646 0.20029C21.0344 -0.0795663 22.1751 -0.0547688 23.2839 0.203833C24.3856 0.469519 25.4873 1.02923 26.3056 1.94319C27.1062 2.85007 27.5987 3.95178 27.7652 5.10663C27.921 6.25085 27.7758 7.4305 27.2338 8.40823C27.17 7.31006 26.9787 6.30045 26.6564 5.36877C26.4899 4.90471 26.295 4.4619 26.0577 4.04389C25.8239 3.62942 25.5476 3.21849 25.2535 2.88195C24.6548 2.19117 23.8436 1.65271 22.9332 1.2347C22.0192 0.802512 21.0238 0.483689 19.9646 0.20029Z" fill="#B0BEC5"/>
<path d="M20.2589 3.55861C20.8505 3.1831 21.5909 3.10517 22.2888 3.22916C22.9937 3.35314 23.6668 3.70385 24.1982 4.18917C24.726 4.68157 25.1015 5.30151 25.3353 5.94624C25.4487 6.26861 25.5054 6.60869 25.5585 6.93814C25.5762 7.27822 25.5762 7.61829 25.5231 7.95837C25.2786 7.69977 25.0873 7.44117 24.9067 7.18965C24.6977 6.95231 24.5347 6.70079 24.347 6.47053C23.9786 6.01355 23.6208 5.59908 23.2346 5.23066C22.8379 4.87287 22.4199 4.55759 21.9345 4.28482C21.4528 4.00496 20.9108 3.77116 20.2589 3.55861Z" fill="#90A4AE"/>
<path d="M0.00677075 26.0037C0.506261 26.9814 1.02701 27.8883 1.63277 28.6889C2.23499 29.4895 2.92578 30.1696 3.72992 30.6124C4.1196 30.8285 4.58366 31.0163 5.0371 31.158C5.49408 31.3032 5.96877 31.4024 6.45764 31.4697C7.43536 31.5902 8.46268 31.5689 9.55022 31.4024C8.70711 32.1357 7.5806 32.5254 6.43284 32.6104C5.2709 32.6883 4.09126 32.4368 3.03559 31.8417C1.97285 31.2359 1.1935 30.2724 0.70464 29.2486C0.215777 28.2177 -0.0463665 27.1089 0.00677075 26.0037Z" fill="#B0BEC5"/>
<path d="M3.35413 25.5896C3.69775 26.1847 4.03783 26.663 4.40979 27.081C4.77821 27.499 5.17497 27.8426 5.60715 28.1544C6.04642 28.4555 6.52819 28.7212 7.05248 28.9868C7.31463 29.1215 7.59448 29.2277 7.8708 29.3836C8.15774 29.5076 8.44822 29.6387 8.75287 29.8264C8.43051 29.9469 8.10106 30.0177 7.76452 30.0708C7.43153 30.085 7.08791 30.1027 6.74783 30.0567C6.06767 29.9646 5.38751 29.7272 4.79238 29.3128C4.20787 28.8912 3.72255 28.3067 3.45686 27.6442C3.18763 26.9853 3.1097 26.2485 3.35413 25.5896Z" fill="#90A4AE"/>
<defs>
<radialGradient id="paint0_radial_14_648" cx="0" cy="0" r="1" gradientUnits="userSpaceOnUse" gradientTransform="translate(13.191 12.0678) rotate(-45) scale(32.2393)">
<stop offset="0.3533" stop-color="#FFCA28"/>
<stop offset="0.8723" stop-color="#FFB300"/>
</radialGradient>
</defs>
</svg>
